<svg xmlns="http://www.w3.org/2000/svg" width="200.063" height="36.634" viewBox="0 0 200.063 36.634">
  <g id="sdx-logo" transform="translate(6918 7380.845)">
    <g id="Group_13" data-name="Group 13" transform="translate(-6918 -7373.902)">
      <rect id="Rectangle_12" data-name="Rectangle 12" width="17.826" height="4.537" transform="translate(0 0)" fill="#fff"/>
      <path id="Path_11" data-name="Path 11" d="M398.335,544.332v4.31L416.02,554.1v-4.386Z" transform="translate(-398.248 -539.903)" fill="#fff" opacity="0.5"/>
      <rect id="Rectangle_13" data-name="Rectangle 13" width="17.826" height="4.537" transform="translate(0 13.936)" fill="#fff"/>
    </g>
    <g id="Group_12" data-name="Group 12" transform="translate(-6898.391 -7378.765)">
      <path id="Path_12" data-name="Path 12" d="M616.078,517v18.5h4.664V517Z" transform="translate(-616.078 -512.138)" fill="#fff"/>
      <path id="Path_13" data-name="Path 13" d="M616.078,487v3h4.678v-3Z" transform="translate(-616.078 -486.995)" fill="#fff" opacity="0.5"/>
    </g>
    <g id="Group_5" data-name="Group 5" transform="translate(-6892.072 -7374.476)">
      <path id="Exclusion_2" data-name="Exclusion 2" d="M9.489,19.047a13.561,13.561,0,0,1-3.334-.388,9.246,9.246,0,0,1-2.2-.853,5.272,5.272,0,0,1-1.582-1.24,4.91,4.91,0,0,1-1.16-1.5A9.185,9.185,0,0,1,.4,12.942,14.015,14.015,0,0,1,0,9.689a13.467,13.467,0,0,1,.341-3.3,9.748,9.748,0,0,1,.819-2.236A5.845,5.845,0,0,1,2.375,2.48,5.055,5.055,0,0,1,3.91,1.31,9.838,9.838,0,0,1,6.09.469,15.232,15.232,0,0,1,9.446.008C9.614,0,9.783,0,9.946,0a10.754,10.754,0,0,1,3.009.388,6.275,6.275,0,0,1,1.834.853,3.46,3.46,0,0,1,1.162,1.24V.4h4.7V18.719h-4.7V16.567h0a1.8,1.8,0,0,1-.219.377,3.617,3.617,0,0,1-.888.838,6.4,6.4,0,0,1-1.9.85,12.768,12.768,0,0,1-3.263.413Zm.726-14.5c-.175,0-.343.005-.5.016A8.066,8.066,0,0,0,7.4,5.092a3.841,3.841,0,0,0-1.32.9,4.5,4.5,0,0,0-.919,1.381A5.846,5.846,0,0,0,4.723,9.6a5.458,5.458,0,0,0,.4,2.219,4.225,4.225,0,0,0,.924,1.37,3.854,3.854,0,0,0,1.361.887,9.763,9.763,0,0,0,2.518.537c.1.005.21.008.318.008a9.319,9.319,0,0,0,2.183-.29,5.056,5.056,0,0,0,1.768-.892A4.573,4.573,0,0,0,15.419,12,5.161,5.161,0,0,0,16,9.6a5.01,5.01,0,0,0-.535-2.415A4.637,4.637,0,0,0,14.234,5.7a5.368,5.368,0,0,0-1.811-.949A13.456,13.456,0,0,0,10.215,4.543Z" transform="translate(0 0)" fill="#fff"/>
      <path id="Exclusion_3" data-name="Exclusion 3" d="M20.254,0V7.747a5.68,5.68,0,0,1-1.961,3.807c-1.874,1.643-5.637,2.877-9.244,2.623C.817,13.846,0,7.747,0,7.747H4.543S4.053,9.672,9.049,9.9s6.506-2.156,6.506-2.156V0Z" transform="translate(0.397 16.054)" fill="#fff"/>
    </g>
    <path id="Path_17" data-name="Path 17" d="M655.8,515.722v18.55h4.651V523.328s.579-3.286,5.031-3.353,5.045,3.353,5.045,3.353v10.943h4.746V523.1s-.313-5.514-5.622-7.146a12.329,12.329,0,0,0-6.82,0,6.366,6.366,0,0,0-2.38,1.885v-2.118Z" transform="translate(-7525.504 -7889.7)" fill="#fff"/>
    <g id="Group_11" data-name="Group 11" transform="translate(-6848.479 -7378.765)">
      <path id="Path_18" data-name="Path 18" d="M616.078,517v18.5h4.664V517Z" transform="translate(-616.078 -512.138)" fill="#fff"/>
      <path id="Path_19" data-name="Path 19" d="M616.078,487v3h4.678v-3Z" transform="translate(-616.078 -486.995)" fill="#fff" opacity="0.5"/>
    </g>
    <path id="Path_20" data-name="Path 20" d="M521.348,500.107V485.764H519v-4.05h2.345s-.036-3.417,1.452-5.147,4.5-1.773,4.5-1.773h5.841v4.2h-5.185a1.775,1.775,0,0,0-1.486.592,4.4,4.4,0,0,0-.406,2.13h7.077v4.05h-7.077v14.343Z" transform="translate(-7361 -7855.536)" fill="#fff"/>
    <g id="Group_10" data-name="Group 10" transform="translate(-6826.117 -7378.765)">
      <path id="Path_21" data-name="Path 21" d="M616.078,517v18.5h4.664V517Z" transform="translate(-616.078 -512.138)" fill="#fff"/>
      <path id="Path_22" data-name="Path 22" d="M616.078,487v3h4.678v-3Z" transform="translate(-616.078 -486.995)" fill="#fff" opacity="0.5"/>
    </g>
    <path id="Exclusion_4" data-name="Exclusion 4" d="M9.489,25.417a13.561,13.561,0,0,1-3.333-.388,9.246,9.246,0,0,1-2.2-.853,5.269,5.269,0,0,1-1.582-1.24,4.915,4.915,0,0,1-1.16-1.5A9.185,9.185,0,0,1,.4,19.312,14.015,14.015,0,0,1,0,16.059a13.467,13.467,0,0,1,.341-3.3,9.748,9.748,0,0,1,.819-2.236A5.845,5.845,0,0,1,2.375,8.85,5.059,5.059,0,0,1,3.91,7.68a9.838,9.838,0,0,1,2.18-.841,15.231,15.231,0,0,1,3.356-.46c.168-.006.337-.008.5-.008a10.754,10.754,0,0,1,3.009.388,6.275,6.275,0,0,1,1.834.853,3.459,3.459,0,0,1,1.162,1.24V0h4.7V25.089h-4.7V22.937h0a1.8,1.8,0,0,1-.219.377,3.617,3.617,0,0,1-.888.838,6.4,6.4,0,0,1-1.9.85,12.768,12.768,0,0,1-3.263.413Zm.726-14.5c-.175,0-.343.005-.5.016a8.067,8.067,0,0,0-2.312.533,3.844,3.844,0,0,0-1.32.9,4.5,4.5,0,0,0-.919,1.381,5.846,5.846,0,0,0-.442,2.224,5.458,5.458,0,0,0,.4,2.219,4.225,4.225,0,0,0,.924,1.37,3.852,3.852,0,0,0,1.361.887,9.759,9.759,0,0,0,2.518.537c.1.005.21.008.318.008a9.306,9.306,0,0,0,2.183-.29,5.06,5.06,0,0,0,1.768-.892,4.573,4.573,0,0,0,1.228-1.442,5.161,5.161,0,0,0,.583-2.4,5.01,5.01,0,0,0-.535-2.415,4.637,4.637,0,0,0-1.233-1.482,5.362,5.362,0,0,0-1.811-.949A13.428,13.428,0,0,0,10.215,10.913Z" transform="translate(-6819.634 -7380.846)" fill="#fff"/>
    <g id="Group_9" data-name="Group 9" transform="translate(-6797.271 -7378.765)">
      <path id="Path_25" data-name="Path 25" d="M616.078,517v18.5h4.664V517Z" transform="translate(-616.078 -512.138)" fill="#fff"/>
      <path id="Path_26" data-name="Path 26" d="M616.078,487v3h4.678v-3Z" transform="translate(-616.078 -486.995)" fill="#fff" opacity="0.5"/>
    </g>
    <g id="Group_6" data-name="Group 6" transform="translate(-6790.951 -7374.476)">
      <path id="Exclusion_2-2" data-name="Exclusion 2" d="M9.489,19.047a13.561,13.561,0,0,1-3.334-.388,9.246,9.246,0,0,1-2.2-.853,5.272,5.272,0,0,1-1.582-1.24,4.91,4.91,0,0,1-1.16-1.5A9.185,9.185,0,0,1,.4,12.942,14.015,14.015,0,0,1,0,9.689a13.467,13.467,0,0,1,.341-3.3,9.748,9.748,0,0,1,.819-2.236A5.845,5.845,0,0,1,2.375,2.48,5.055,5.055,0,0,1,3.91,1.31,9.838,9.838,0,0,1,6.09.469,15.232,15.232,0,0,1,9.446.008C9.614,0,9.783,0,9.946,0a10.754,10.754,0,0,1,3.009.388,6.275,6.275,0,0,1,1.834.853,3.46,3.46,0,0,1,1.162,1.24V.4h4.7V18.719h-4.7V16.567h0a1.8,1.8,0,0,1-.219.377,3.617,3.617,0,0,1-.888.838,6.4,6.4,0,0,1-1.9.85,12.768,12.768,0,0,1-3.263.413Zm.726-14.5c-.175,0-.343.005-.5.016A8.066,8.066,0,0,0,7.4,5.092a3.841,3.841,0,0,0-1.32.9,4.5,4.5,0,0,0-.919,1.381A5.846,5.846,0,0,0,4.723,9.6a5.458,5.458,0,0,0,.4,2.219,4.225,4.225,0,0,0,.924,1.37,3.854,3.854,0,0,0,1.361.887,9.763,9.763,0,0,0,2.518.537c.1.005.21.008.318.008a9.319,9.319,0,0,0,2.183-.29,5.056,5.056,0,0,0,1.768-.892A4.573,4.573,0,0,0,15.419,12,5.161,5.161,0,0,0,16,9.6a5.01,5.01,0,0,0-.535-2.415A4.637,4.637,0,0,0,14.234,5.7a5.368,5.368,0,0,0-1.811-.949A13.456,13.456,0,0,0,10.215,4.543Z" transform="translate(0 0)" fill="#fff"/>
      <path id="Exclusion_3-2" data-name="Exclusion 3" d="M20.254,0V7.747a5.68,5.68,0,0,1-1.961,3.807c-1.874,1.643-5.637,2.877-9.244,2.623C.817,13.846,0,7.747,0,7.747H4.543S4.053,9.672,9.049,9.9s6.506-2.156,6.506-2.156V0Z" transform="translate(0.397 16.054)" fill="#fff"/>
    </g>
    <g id="Group_8" data-name="Group 8" transform="translate(-6768.588 -7378.765)">
      <path id="Path_27" data-name="Path 27" d="M616.078,517v18.5h4.664V517Z" transform="translate(-616.078 -512.138)" fill="#fff"/>
      <path id="Path_28" data-name="Path 28" d="M616.078,487v3h4.678v-3Z" transform="translate(-616.078 -486.995)" fill="#fff" opacity="0.5"/>
    </g>
    <g id="Group_7" data-name="Group 7" transform="translate(-6762.106 -7380.743)">
      <path id="Path_29" data-name="Path 29" d="M533.471,474.793v18.393s-.036,3.417,1.452,5.147,4.5,1.773,4.5,1.773h2.864l.026-4.2h-2.234a1.775,1.775,0,0,1-1.486-.592,4.4,4.4,0,0,1-.406-2.13V474.793Z" transform="translate(-531.126 -474.793)" fill="#fff"/>
      <rect id="Rectangle_14" data-name="Rectangle 14" width="10.371" height="4.051" transform="translate(0 8.784)" fill="#fff"/>
    </g>
    <path id="Exclusion_5" data-name="Exclusion 5" d="M9.489,19.047a13.561,13.561,0,0,1-3.334-.388,9.246,9.246,0,0,1-2.2-.853,5.272,5.272,0,0,1-1.582-1.24,4.91,4.91,0,0,1-1.16-1.5A9.185,9.185,0,0,1,.4,12.942,14.015,14.015,0,0,1,0,9.689a13.467,13.467,0,0,1,.341-3.3,9.748,9.748,0,0,1,.819-2.236A5.845,5.845,0,0,1,2.375,2.48,5.055,5.055,0,0,1,3.91,1.31,9.838,9.838,0,0,1,6.09.469,15.232,15.232,0,0,1,9.446.008C9.614,0,9.783,0,9.946,0a10.754,10.754,0,0,1,3.009.388,6.275,6.275,0,0,1,1.834.853,3.46,3.46,0,0,1,1.162,1.24V.4h4.7V18.719h-4.7V16.567h0a1.8,1.8,0,0,1-.219.377,3.617,3.617,0,0,1-.888.838,6.4,6.4,0,0,1-1.9.85,12.768,12.768,0,0,1-3.263.413Zm.726-14.5c-.175,0-.343.005-.5.016A8.066,8.066,0,0,0,7.4,5.092a3.841,3.841,0,0,0-1.32.9,4.5,4.5,0,0,0-.919,1.381A5.846,5.846,0,0,0,4.723,9.6a5.458,5.458,0,0,0,.4,2.219,4.225,4.225,0,0,0,.924,1.37,3.854,3.854,0,0,0,1.361.887,9.763,9.763,0,0,0,2.518.537c.1.005.21.008.318.008a9.319,9.319,0,0,0,2.183-.29,5.056,5.056,0,0,0,1.768-.892A4.573,4.573,0,0,0,15.419,12,5.161,5.161,0,0,0,16,9.6a5.01,5.01,0,0,0-.535-2.415A4.637,4.637,0,0,0,14.234,5.7a5.368,5.368,0,0,0-1.811-.949A13.456,13.456,0,0,0,10.215,4.543Z" transform="translate(-6749.141 -7374.476)" fill="#fff"/>
    <path id="Path_32" data-name="Path 32" d="M533.471,474.793v18.393s-.036,3.417,1.452,5.147,4.5,1.773,4.5,1.773h2.864l.026-4.2h-2.234a1.775,1.775,0,0,1-1.486-.592,4.4,4.4,0,0,1-.406-2.13V474.793Z" transform="translate(-7260.25 -7855.536)" fill="#fff"/>
  </g>
</svg>
