<svg xmlns="http://www.w3.org/2000/svg" width="149.953" height="26.005" viewBox="0 0 149.953 26.005">
  <g id="sdx-logo-alternate" transform="translate(-176.093 -552.937)">
    <rect id="Rectangle_1" data-name="Rectangle 1" width="18.09" height="4.605" transform="translate(176.093 559.878)" fill="#1b4539"/>
    <path id="Path_1" data-name="Path 1" d="M416.282,544.332v4.374l-17.947,5.542V549.8Z" transform="translate(-222.187 20.04)" fill="#1b4539" opacity="0.5"/>
    <rect id="Rectangle_2" data-name="Rectangle 2" width="18.09" height="4.605" transform="translate(176.093 574.021)" fill="#1b4539"/>
    <path id="Path_2" data-name="Path 2" d="M521.382,500.483V485.927H519v-4.11h2.379s-.036-3.468,1.473-5.224,4.565-1.8,4.565-1.8h5.927v4.262h-5.262a1.8,1.8,0,0,0-1.508.6,4.463,4.463,0,0,0-.412,2.161h7.182v4.11h-7.182v14.556Z" transform="translate(-323.01 78.143)" fill="#1b4539"/>
    <path id="Path_3" data-name="Path 3" d="M616.078,517v18.779h4.733V517Z" transform="translate(-404.121 42.878)" fill="#1b4539"/>
    <path id="Path_4" data-name="Path 4" d="M616.078,487v3.044h4.747V487Z" transform="translate(-404.121 67.948)" fill="#1b4539" opacity="0.5"/>
    <path id="Path_5" data-name="Path 5" d="M655.8,515.725V534.55h4.72V523.445s.587-3.335,5.106-3.4,5.12,3.4,5.12,3.4V534.55h4.817V523.213s-.318-5.6-5.706-7.252a12.514,12.514,0,0,0-6.921,0,6.46,6.46,0,0,0-2.416,1.913v-2.149Z" transform="translate(-437.308 44.152)" fill="#1b4539"/>
    <path id="Exclusion_1" data-name="Exclusion 1" d="M9.63,19.33a13.762,13.762,0,0,1-3.383-.393,9.383,9.383,0,0,1-2.231-.865,5.35,5.35,0,0,1-1.605-1.259,4.983,4.983,0,0,1-1.178-1.525,9.321,9.321,0,0,1-.825-2.154A14.223,14.223,0,0,1,0,9.833,13.667,13.667,0,0,1,.348,6.479,9.893,9.893,0,0,1,1.179,4.21,5.932,5.932,0,0,1,2.411,2.517,5.13,5.13,0,0,1,3.968,1.329,9.984,9.984,0,0,1,6.181.475,15.457,15.457,0,0,1,9.586.008C9.757,0,9.928,0,10.094,0a10.913,10.913,0,0,1,3.054.393,6.368,6.368,0,0,1,1.861.865,3.511,3.511,0,0,1,1.179,1.258V.4h4.769V19H16.188V16.813h0a1.828,1.828,0,0,1-.222.383,3.671,3.671,0,0,1-.9.851,6.494,6.494,0,0,1-1.931.862,12.957,12.957,0,0,1-3.312.419Zm.737-14.72c-.178,0-.348.005-.507.016a8.186,8.186,0,0,0-2.346.541,3.9,3.9,0,0,0-1.339.917,4.562,4.562,0,0,0-.933,1.4,5.933,5.933,0,0,0-.449,2.257A5.539,5.539,0,0,0,5.194,12a4.287,4.287,0,0,0,.938,1.39,3.911,3.911,0,0,0,1.382.9,9.908,9.908,0,0,0,2.556.545c.1.005.213.008.322.008a9.458,9.458,0,0,0,2.216-.294A5.131,5.131,0,0,0,14.4,13.64a4.641,4.641,0,0,0,1.246-1.464,5.238,5.238,0,0,0,.592-2.433A5.085,5.085,0,0,0,15.7,7.292a4.706,4.706,0,0,0-1.251-1.5,5.448,5.448,0,0,0-1.838-.963A13.656,13.656,0,0,0,10.367,4.61Z" transform="translate(239.444 559.612)" fill="#1b4539"/>
    <path id="Path_8" data-name="Path 8" d="M655.8,515.725V534.55h4.72V523.445s.587-3.335,5.106-3.4,5.12,3.4,5.12,3.4V534.55h4.817V523.213s-.318-5.6-5.706-7.252a12.514,12.514,0,0,0-6.921,0,6.46,6.46,0,0,0-2.416,1.913v-2.149Z" transform="translate(-393.562 44.227)" fill="#1b4539"/>
    <path id="Path_9" data-name="Path 9" d="M1065.48,523.22h4.938s-.66-7.77-10.426-7.668-10.25,7.668-10.25,7.668-.094,1.011-.094,2.046.094,2.094.094,2.094.135,7.371,10.25,7.451,10.426-7.451,10.426-7.451h-4.938s-.9,3.014-5.487,2.939-5.264-3.031-5.264-3.031a8.158,8.158,0,0,1-.28-2,8.761,8.761,0,0,1,.28-2.046s.726-2.955,5.264-3.069S1065.48,523.22,1065.48,523.22Z" transform="translate(-766.389 44.088)" fill="#1b4539"/>
    <path id="Path_10" data-name="Path 10" d="M1054.928,522.573l-.408,3.529h16.523v-2.7s-.806-7.956-10.572-7.854-10.25,7.668-10.25,7.668v4.139s.136,7.37,10.25,7.451c8.254.066,9.979-4.937,10.343-6.825l-5.132-.046c-.475.818-1.858,2.414-5.211,2.359-4.586-.076-5.264-3.031-5.264-3.031a8.157,8.157,0,0,1-.28-2,8.762,8.762,0,0,1,.28-2.046s.726-2.955,5.264-3.069c3.172-.079,4.59,1.452,5.182,2.422Z" transform="translate(-744.998 43.965)" fill="#1b4539"/>
  </g>
</svg>
