<svg xmlns="http://www.w3.org/2000/svg" width="385" height="205" viewBox="0 0 385 205">
  <g id="_649aeeb7d7b46b28705d6417_madushanka-name" data-name="649aeeb7d7b46b28705d6417_madushanka-name" transform="translate(184.992)">
    <path id="Path_314" data-name="Path 314" d="M191.238,82.723c.467-2.94-.026-5.864-.427-8.776C189.079,61.372,183.78,50.353,176.6,40.1a190.288,190.288,0,0,0-15.808-19.3,4.3,4.3,0,0,1-1.231-1.883c-.2-.873-.068-1.459.994-.942.262.128.475.539.69.033.745-1.746,1.99-1.112,3.136-.661,2.151.847,3.733,2.545,5.411,4.033a111.272,111.272,0,0,1,13.2,13.446A101.658,101.658,0,0,1,192.453,49.6c1.8,3.271,3.585,6.624,4.158,10.3.381,2.444,1.6,4.519,2,6.907a63.071,63.071,0,0,1,1.222,13.811A19.366,19.366,0,0,1,196.248,91.1a3.5,3.5,0,0,0-.562,3.213c.889,3.13,1.681,6.3,2.426,9.454a81.7,81.7,0,0,1,1.813,15.719c.317,8.429-.2,16.777-2.732,24.893-1.486,4.77-3.256,9.375-7.3,12.631a4.592,4.592,0,0,1-3.625,1.252,1.334,1.334,0,0,1-1.247-.976c-.225-.755.286-.762.784-1.043,3.411-1.928,4.223-5.515,5.3-8.889,2.97-9.3,3.117-18.862,2.518-28.484A103.636,103.636,0,0,0,190,97.154c-.159-.563-.059-1.306-1.113-.968a13.73,13.73,0,0,1-10.573-1.134c-5.165-2.563-9.177-6.251-10.2-12.323-.55-3.264.694-5.261,3.555-6.821,7.29-3.977,14.3-.572,18.077,5.3l1.013,1.578Zm-14.405-3.976c-1.788-.222-1.691.973-1.656,2.065.12,3.692,2.679,5.866,5.146,7.922a12.383,12.383,0,0,0,6.3,3.127c.932.115,1.7-.055,1.168-1.353a23.789,23.789,0,0,0-6.26-9.312A10.427,10.427,0,0,0,176.833,78.746Zm15.213-9.835a128.406,128.406,0,0,1,1.307,14.065C194.281,78.144,193.3,73.489,192.046,68.911Zm-.955,27.038,2.825,12.012A36.769,36.769,0,0,0,191.091,95.949Z" fill="#096951"/>
    <path id="Path_315" data-name="Path 315" d="M167.328,10.681A86.309,86.309,0,0,1,156,7.958c-.56-.154-1.137-.634-1.714.037-.555.645-.125,1.237.13,1.744,1.389,2.761,1.9,5.781,2.74,8.713.53,1.854,1.412,3.618,1.9,5.538.751,2.957,1.722,5.861,2.674,8.761.482,1.469.264,3.1,1.341,4.456,1.056,1.326.558,2.58-1.58,3.831-1.09.638-2.468.8-3.287-.587a20.585,20.585,0,0,1-1.709-3.595c-2.909-8.252-5.752-16.529-8.651-24.785-.651-1.854-1.426-3.664-2.165-5.485-1.344-3.31-.748-4.583,2.554-5.906a8.884,8.884,0,0,1,7.449.292,82.373,82.373,0,0,0,14.762,5.6c1.029.257,2.092.366,3.132.582,1.2.249,1.453.863.622,1.843C172.35,11.17,171.795,11.307,167.328,10.681Zm-16.183,5.951A34.364,34.364,0,0,0,147.2,5.794Z" fill="#096951"/>
    <text id="Madushanka" transform="translate(-4.992 189)" font-size="62" font-family="ClashGrotesk-Semibold, Clash Grotesk" font-weight="600" letter-spacing="-0.01em"><tspan x="-179.614" y="0">Madushanka</tspan></text>
  </g>
</svg>
