<svg xmlns="http://www.w3.org/2000/svg" width="132.99" height="31.608" viewBox="0 0 132.99 31.608">
  <g id="logo-white" transform="translate(8898.938 -5458.778)">
    <path id="Subtraction_8" data-name="Subtraction 8" d="M15.781,31.608a15.746,15.746,0,0,1-7.862-2.088H23.642a15.746,15.746,0,0,1-7.862,2.088ZM9.632,27.464,7.886,26.113H3.794c-.206-.239-.408-.488-.6-.738h25.17a15.938,15.938,0,0,1-1.9,2.083ZM29.7,23.31H9.775L8.093,21.967H1.215c-.121-.285-.235-.577-.338-.868H30.684a15.773,15.773,0,0,1-.984,2.21Zm1.563-4.275H9.643L7.932,17.693H.079c-.034-.287-.061-.579-.079-.868H31.561a15.858,15.858,0,0,1-.3,2.21Zm.3-4.275H9.643L7.932,13.418H.147c.044-.291.1-.583.157-.868H31.258a15.849,15.849,0,0,1,.3,2.21Zm-.884-4.275H9.62L7.938,9.143h-6.5c.116-.249.24-.5.368-.738H29.757a15.761,15.761,0,0,1,.919,2.081ZM28.446,6.34H9.148L7.857,5H4.242c.281-.3.577-.592.88-.868H26.439a15.935,15.935,0,0,1,2.007,2.21ZM23.6,2.065H7.96a15.813,15.813,0,0,1,15.642,0Z" transform="translate(-8898.938 5458.778)" fill="#fff"/>
    <text id="SignifiDigital" transform="translate(-8856.947 5479.205)" fill="#fff" font-size="16" font-family="HelveticaNeue-Medium, Helvetica Neue" font-weight="500" letter-spacing="-0.01em"><tspan x="0" y="0">SignifiDigital</tspan></text>
  </g>
</svg>
