<svg xmlns="http://www.w3.org/2000/svg" width="98.373" height="22.863" viewBox="0 0 98.373 22.863">
  <g id="preloader" transform="translate(8898.938 -5458.778)">
    <path id="Subtraction_8" data-name="Subtraction 8" d="M11.415,22.863a11.389,11.389,0,0,1-5.687-1.511H17.1a11.389,11.389,0,0,1-5.687,1.511Zm-4.447-3L5.7,18.888H2.745c-.149-.173-.295-.353-.433-.534H20.518a11.529,11.529,0,0,1-1.376,1.506Zm14.516-3H7.071L5.854,15.89H.879c-.087-.206-.17-.417-.245-.628h21.56a11.409,11.409,0,0,1-.712,1.6Zm1.131-3.092H6.975L5.737,12.8H.057C.033,12.59.013,12.378,0,12.17H22.829a11.47,11.47,0,0,1-.216,1.6Zm.215-3.092H6.975L5.737,9.705H.106c.032-.21.07-.422.113-.628H22.61a11.464,11.464,0,0,1,.218,1.6Zm-.639-3.092H6.958L5.742,6.613h-4.7c.084-.18.174-.36.266-.534H21.524a11.4,11.4,0,0,1,.665,1.505Zm-1.613-3H6.617l-.934-.971H3.068c.2-.217.418-.428.637-.628h15.42a11.527,11.527,0,0,1,1.451,1.6Zm-3.5-3.092H5.757a11.438,11.438,0,0,1,11.314,0Z" transform="translate(-8898.938 5458.778)" fill="#439676"/>
    <text id="SignifiDigital" transform="translate(-8868.564 5473.98)" font-size="12" font-family="HelveticaNeue-Medium, Helvetica Neue" font-weight="500" letter-spacing="-0.01em"><tspan x="0" y="0">SignifiDigital</tspan></text>
  </g>
</svg>
