<svg xmlns="http://www.w3.org/2000/svg" width="18.207" height="18.173" viewBox="0 0 18.207 18.173">
  <path id="sig-icon" d="M13.265,18.707a9.126,9.126,0,0,1-4.544-1.2h9.089a9.126,9.126,0,0,1-4.544,1.2ZM9.711,16.32H7.095c-.171-.156-.339-.321-.5-.49h.86l.388-.776,12.73.016a9.19,9.19,0,0,1-1.136,1.247Zm11.6-2.393H5.219c-.086-.159-.169-.322-.245-.485l3.992,0h0c.031-.036.2-.223.366-.4s.381-.37.383-.372H21.875a9.069,9.069,0,0,1-.564,1.259Zm.833-2.152H4.386c-.064-.26-.117-.525-.157-.789l8.115-.008a10,10,0,0,1,1.373-.451c.77-.192,1.726-.322,1.736-.323h6.933a9.087,9.087,0,0,1-.242,1.571Zm.257-2.46h-7.04c-.037-.01-.92-.242-1.644-.465a6.679,6.679,0,0,1-1.373-.622H4.228c.025-.167.056-.336.09-.5H22.212A9.118,9.118,0,0,1,22.4,9.316ZM21.875,6.54H9.717c-.024-.022-.24-.219-.413-.4s-.336-.371-.337-.373H4.973c.067-.144.139-.287.213-.425H21.344a9.063,9.063,0,0,1,.531,1.2ZM20.586,4.152H7.844l-.387-.773H6.595c.163-.173.334-.341.509-.5H19.426a9.19,9.19,0,0,1,1.16,1.273Zm-2.8-2.462H8.744a9.168,9.168,0,0,1,9.042,0Z" transform="translate(18.707 -4.228) rotate(90)" fill="#222"/>
</svg>
