<svg id="Group_268" data-name="Group 268" xmlns="http://www.w3.org/2000/svg" width="314" height="118" viewBox="0 0 314 118">
  <circle id="Ellipse_4" data-name="Ellipse 4" cx="3" cy="3" r="3" fill="#0070c5"/>
  <circle id="Ellipse_4-2" data-name="Ellipse 4" cx="3" cy="3" r="3" transform="translate(14)" fill="#0070c5"/>
  <circle id="Ellipse_4-3" data-name="Ellipse 4" cx="3" cy="3" r="3" transform="translate(28)" fill="#0070c5"/>
  <circle id="Ellipse_4-4" data-name="Ellipse 4" cx="3" cy="3" r="3" transform="translate(42)" fill="#0070c5"/>
  <circle id="Ellipse_4-5" data-name="Ellipse 4" cx="3" cy="3" r="3" transform="translate(56)" fill="#0070c5"/>
  <circle id="Ellipse_4-6" data-name="Ellipse 4" cx="3" cy="3" r="3" transform="translate(70)" fill="#0070c5"/>
  <circle id="Ellipse_4-7" data-name="Ellipse 4" cx="3" cy="3" r="3" transform="translate(84)" fill="#0070c5"/>
  <circle id="Ellipse_4-8" data-name="Ellipse 4" cx="3" cy="3" r="3" transform="translate(98)" fill="#0070c5"/>
  <circle id="Ellipse_4-9" data-name="Ellipse 4" cx="3" cy="3" r="3" transform="translate(112)" fill="#0070c5"/>
  <circle id="Ellipse_4-10" data-name="Ellipse 4" cx="3" cy="3" r="3" transform="translate(126)" fill="#0070c5"/>
  <circle id="Ellipse_4-11" data-name="Ellipse 4" cx="3" cy="3" r="3" transform="translate(140)" fill="#0070c5"/>
  <circle id="Ellipse_4-12" data-name="Ellipse 4" cx="3" cy="3" r="3" transform="translate(154)" fill="#0070c5"/>
  <circle id="Ellipse_4-13" data-name="Ellipse 4" cx="3" cy="3" r="3" transform="translate(168)" fill="#0070c5"/>
  <circle id="Ellipse_4-14" data-name="Ellipse 4" cx="3" cy="3" r="3" transform="translate(182)" fill="#0070c5"/>
  <circle id="Ellipse_4-15" data-name="Ellipse 4" cx="3" cy="3" r="3" transform="translate(196)" fill="#0070c5"/>
  <circle id="Ellipse_4-16" data-name="Ellipse 4" cx="3" cy="3" r="3" transform="translate(210)" fill="#0070c5"/>
  <circle id="Ellipse_4-17" data-name="Ellipse 4" cx="3" cy="3" r="3" transform="translate(224)" fill="#0070c5"/>
  <circle id="Ellipse_4-18" data-name="Ellipse 4" cx="3" cy="3" r="3" transform="translate(238)" fill="#0070c5"/>
  <circle id="Ellipse_4-19" data-name="Ellipse 4" cx="3" cy="3" r="3" transform="translate(252)" fill="#0070c5"/>
  <circle id="Ellipse_4-20" data-name="Ellipse 4" cx="3" cy="3" r="3" transform="translate(266)" fill="#0070c5"/>
  <circle id="Ellipse_4-21" data-name="Ellipse 4" cx="3" cy="3" r="3" transform="translate(294)" fill="#0070c5"/>
  <circle id="Ellipse_4-22" data-name="Ellipse 4" cx="3" cy="3" r="3" transform="translate(0 14)" fill="#0070c5"/>
  <circle id="Ellipse_4-23" data-name="Ellipse 4" cx="3" cy="3" r="3" transform="translate(14 14)" fill="#0070c5"/>
  <circle id="Ellipse_4-24" data-name="Ellipse 4" cx="3" cy="3" r="3" transform="translate(28 14)" fill="#0070c5"/>
  <circle id="Ellipse_4-25" data-name="Ellipse 4" cx="3" cy="3" r="3" transform="translate(42 14)" fill="#0070c5"/>
  <circle id="Ellipse_4-26" data-name="Ellipse 4" cx="3" cy="3" r="3" transform="translate(56 14)" fill="#0070c5"/>
  <circle id="Ellipse_4-27" data-name="Ellipse 4" cx="3" cy="3" r="3" transform="translate(70 14)" fill="#0070c5"/>
  <circle id="Ellipse_4-28" data-name="Ellipse 4" cx="3" cy="3" r="3" transform="translate(84 14)" fill="#0070c5"/>
  <circle id="Ellipse_4-29" data-name="Ellipse 4" cx="3" cy="3" r="3" transform="translate(98 14)" fill="#0070c5"/>
  <circle id="Ellipse_4-30" data-name="Ellipse 4" cx="3" cy="3" r="3" transform="translate(112 14)" fill="#0070c5"/>
  <circle id="Ellipse_4-31" data-name="Ellipse 4" cx="3" cy="3" r="3" transform="translate(126 14)" fill="#0070c5"/>
  <circle id="Ellipse_4-32" data-name="Ellipse 4" cx="3" cy="3" r="3" transform="translate(140 14)" fill="#0070c5"/>
  <circle id="Ellipse_4-33" data-name="Ellipse 4" cx="3" cy="3" r="3" transform="translate(154 14)" fill="#0070c5"/>
  <circle id="Ellipse_4-34" data-name="Ellipse 4" cx="3" cy="3" r="3" transform="translate(168 14)" fill="#0070c5"/>
  <circle id="Ellipse_4-35" data-name="Ellipse 4" cx="3" cy="3" r="3" transform="translate(182 14)" fill="#0070c5"/>
  <circle id="Ellipse_4-36" data-name="Ellipse 4" cx="3" cy="3" r="3" transform="translate(210 14)" fill="#0070c5"/>
  <circle id="Ellipse_4-37" data-name="Ellipse 4" cx="3" cy="3" r="3" transform="translate(224 14)" fill="#0070c5"/>
  <circle id="Ellipse_4-38" data-name="Ellipse 4" cx="3" cy="3" r="3" transform="translate(238 14)" fill="#0070c5"/>
  <circle id="Ellipse_4-39" data-name="Ellipse 4" cx="3" cy="3" r="3" transform="translate(252 14)" fill="#0070c5"/>
  <circle id="Ellipse_4-40" data-name="Ellipse 4" cx="3" cy="3" r="3" transform="translate(0 28)" fill="#0070c5"/>
  <circle id="Ellipse_4-41" data-name="Ellipse 4" cx="3" cy="3" r="3" transform="translate(14 28)" fill="#0070c5"/>
  <circle id="Ellipse_4-42" data-name="Ellipse 4" cx="3" cy="3" r="3" transform="translate(28 28)" fill="#0070c5"/>
  <circle id="Ellipse_4-43" data-name="Ellipse 4" cx="3" cy="3" r="3" transform="translate(42 28)" fill="#0070c5"/>
  <circle id="Ellipse_4-44" data-name="Ellipse 4" cx="3" cy="3" r="3" transform="translate(56 28)" fill="#0070c5"/>
  <circle id="Ellipse_4-45" data-name="Ellipse 4" cx="3" cy="3" r="3" transform="translate(70 28)" fill="#0070c5"/>
  <circle id="Ellipse_4-46" data-name="Ellipse 4" cx="3" cy="3" r="3" transform="translate(84 28)" fill="#0070c5"/>
  <circle id="Ellipse_4-47" data-name="Ellipse 4" cx="3" cy="3" r="3" transform="translate(98 28)" fill="#0070c5"/>
  <circle id="Ellipse_4-48" data-name="Ellipse 4" cx="3" cy="3" r="3" transform="translate(112 28)" fill="#0070c5"/>
  <circle id="Ellipse_4-49" data-name="Ellipse 4" cx="3" cy="3" r="3" transform="translate(126 28)" fill="#0070c5"/>
  <circle id="Ellipse_4-50" data-name="Ellipse 4" cx="3" cy="3" r="3" transform="translate(140 28)" fill="#0070c5"/>
  <circle id="Ellipse_4-51" data-name="Ellipse 4" cx="3" cy="3" r="3" transform="translate(154 28)" fill="#0070c5"/>
  <circle id="Ellipse_4-52" data-name="Ellipse 4" cx="3" cy="3" r="3" transform="translate(168 28)" fill="#0070c5"/>
  <circle id="Ellipse_4-53" data-name="Ellipse 4" cx="3" cy="3" r="3" transform="translate(182 28)" fill="#0070c5"/>
  <circle id="Ellipse_4-54" data-name="Ellipse 4" cx="3" cy="3" r="3" transform="translate(196 28)" fill="#0070c5"/>
  <circle id="Ellipse_4-55" data-name="Ellipse 4" cx="3" cy="3" r="3" transform="translate(210 28)" fill="#0070c5"/>
  <circle id="Ellipse_4-56" data-name="Ellipse 4" cx="3" cy="3" r="3" transform="translate(266 28)" fill="#0070c5"/>
  <circle id="Ellipse_4-57" data-name="Ellipse 4" cx="3" cy="3" r="3" transform="translate(280 28)" fill="#0070c5"/>
  <circle id="Ellipse_4-58" data-name="Ellipse 4" cx="3" cy="3" r="3" transform="translate(0 42)" fill="#0070c5"/>
  <circle id="Ellipse_4-59" data-name="Ellipse 4" cx="3" cy="3" r="3" transform="translate(14 42)" fill="#0070c5"/>
  <circle id="Ellipse_4-60" data-name="Ellipse 4" cx="3" cy="3" r="3" transform="translate(28 42)" fill="#0070c5"/>
  <circle id="Ellipse_4-61" data-name="Ellipse 4" cx="3" cy="3" r="3" transform="translate(42 42)" fill="#0070c5"/>
  <circle id="Ellipse_4-62" data-name="Ellipse 4" cx="3" cy="3" r="3" transform="translate(56 42)" fill="#0070c5"/>
  <circle id="Ellipse_4-63" data-name="Ellipse 4" cx="3" cy="3" r="3" transform="translate(70 42)" fill="#0070c5"/>
  <circle id="Ellipse_4-64" data-name="Ellipse 4" cx="3" cy="3" r="3" transform="translate(84 42)" fill="#0070c5"/>
  <circle id="Ellipse_4-65" data-name="Ellipse 4" cx="3" cy="3" r="3" transform="translate(98 42)" fill="#0070c5"/>
  <circle id="Ellipse_4-66" data-name="Ellipse 4" cx="3" cy="3" r="3" transform="translate(112 42)" fill="#0070c5"/>
  <circle id="Ellipse_4-67" data-name="Ellipse 4" cx="3" cy="3" r="3" transform="translate(126 42)" fill="#0070c5"/>
  <circle id="Ellipse_4-68" data-name="Ellipse 4" cx="3" cy="3" r="3" transform="translate(140 42)" fill="#0070c5"/>
  <circle id="Ellipse_4-69" data-name="Ellipse 4" cx="3" cy="3" r="3" transform="translate(154 42)" fill="#0070c5"/>
  <circle id="Ellipse_4-70" data-name="Ellipse 4" cx="3" cy="3" r="3" transform="translate(168 42)" fill="#0070c5"/>
  <circle id="Ellipse_4-71" data-name="Ellipse 4" cx="3" cy="3" r="3" transform="translate(182 42)" fill="#0070c5"/>
  <circle id="Ellipse_4-72" data-name="Ellipse 4" cx="3" cy="3" r="3" transform="translate(196 42)" fill="#0070c5"/>
  <circle id="Ellipse_4-73" data-name="Ellipse 4" cx="3" cy="3" r="3" transform="translate(210 42)" fill="#0070c5"/>
  <circle id="Ellipse_4-74" data-name="Ellipse 4" cx="3" cy="3" r="3" transform="translate(224 42)" fill="#0070c5"/>
  <circle id="Ellipse_4-75" data-name="Ellipse 4" cx="3" cy="3" r="3" transform="translate(238 42)" fill="#0070c5"/>
  <circle id="Ellipse_4-76" data-name="Ellipse 4" cx="3" cy="3" r="3" transform="translate(252 42)" fill="#0070c5"/>
  <circle id="Ellipse_4-77" data-name="Ellipse 4" cx="3" cy="3" r="3" transform="translate(0 56)" fill="#0070c5"/>
  <circle id="Ellipse_4-78" data-name="Ellipse 4" cx="3" cy="3" r="3" transform="translate(14 56)" fill="#0070c5"/>
  <circle id="Ellipse_4-79" data-name="Ellipse 4" cx="3" cy="3" r="3" transform="translate(28 56)" fill="#0070c5"/>
  <circle id="Ellipse_4-80" data-name="Ellipse 4" cx="3" cy="3" r="3" transform="translate(42 56)" fill="#0070c5"/>
  <circle id="Ellipse_4-81" data-name="Ellipse 4" cx="3" cy="3" r="3" transform="translate(56 56)" fill="#0070c5"/>
  <circle id="Ellipse_4-82" data-name="Ellipse 4" cx="3" cy="3" r="3" transform="translate(70 56)" fill="#0070c5"/>
  <circle id="Ellipse_4-83" data-name="Ellipse 4" cx="3" cy="3" r="3" transform="translate(84 56)" fill="#0070c5"/>
  <circle id="Ellipse_4-84" data-name="Ellipse 4" cx="3" cy="3" r="3" transform="translate(98 56)" fill="#0070c5"/>
  <circle id="Ellipse_4-85" data-name="Ellipse 4" cx="3" cy="3" r="3" transform="translate(112 56)" fill="#0070c5"/>
  <circle id="Ellipse_4-86" data-name="Ellipse 4" cx="3" cy="3" r="3" transform="translate(126 56)" fill="#0070c5"/>
  <circle id="Ellipse_4-87" data-name="Ellipse 4" cx="3" cy="3" r="3" transform="translate(140 56)" fill="#0070c5"/>
  <circle id="Ellipse_4-88" data-name="Ellipse 4" cx="3" cy="3" r="3" transform="translate(154 56)" fill="#0070c5"/>
  <circle id="Ellipse_4-89" data-name="Ellipse 4" cx="3" cy="3" r="3" transform="translate(168 56)" fill="#0070c5"/>
  <circle id="Ellipse_4-90" data-name="Ellipse 4" cx="3" cy="3" r="3" transform="translate(182 56)" fill="#0070c5"/>
  <circle id="Ellipse_4-91" data-name="Ellipse 4" cx="3" cy="3" r="3" transform="translate(196 56)" fill="#0070c5"/>
  <circle id="Ellipse_4-92" data-name="Ellipse 4" cx="3" cy="3" r="3" transform="translate(224 56)" fill="#0070c5"/>
  <circle id="Ellipse_4-93" data-name="Ellipse 4" cx="3" cy="3" r="3" transform="translate(238 56)" fill="#0070c5"/>
  <circle id="Ellipse_4-94" data-name="Ellipse 4" cx="3" cy="3" r="3" transform="translate(252 56)" fill="#0070c5"/>
  <circle id="Ellipse_4-95" data-name="Ellipse 4" cx="3" cy="3" r="3" transform="translate(294 56)" fill="#0070c5"/>
  <circle id="Ellipse_4-96" data-name="Ellipse 4" cx="3" cy="3" r="3" transform="translate(0 70)" fill="#0070c5"/>
  <circle id="Ellipse_4-97" data-name="Ellipse 4" cx="3" cy="3" r="3" transform="translate(14 70)" fill="#0070c5"/>
  <circle id="Ellipse_4-98" data-name="Ellipse 4" cx="3" cy="3" r="3" transform="translate(28 70)" fill="#0070c5"/>
  <circle id="Ellipse_4-99" data-name="Ellipse 4" cx="3" cy="3" r="3" transform="translate(42 70)" fill="#0070c5"/>
  <circle id="Ellipse_4-100" data-name="Ellipse 4" cx="3" cy="3" r="3" transform="translate(56 70)" fill="#0070c5"/>
  <circle id="Ellipse_4-101" data-name="Ellipse 4" cx="3" cy="3" r="3" transform="translate(70 70)" fill="#0070c5"/>
  <circle id="Ellipse_4-102" data-name="Ellipse 4" cx="3" cy="3" r="3" transform="translate(84 70)" fill="#0070c5"/>
  <circle id="Ellipse_4-103" data-name="Ellipse 4" cx="3" cy="3" r="3" transform="translate(98 70)" fill="#0070c5"/>
  <circle id="Ellipse_4-104" data-name="Ellipse 4" cx="3" cy="3" r="3" transform="translate(112 70)" fill="#0070c5"/>
  <circle id="Ellipse_4-105" data-name="Ellipse 4" cx="3" cy="3" r="3" transform="translate(126 70)" fill="#0070c5"/>
  <circle id="Ellipse_4-106" data-name="Ellipse 4" cx="3" cy="3" r="3" transform="translate(140 70)" fill="#0070c5"/>
  <circle id="Ellipse_4-107" data-name="Ellipse 4" cx="3" cy="3" r="3" transform="translate(154 70)" fill="#0070c5"/>
  <circle id="Ellipse_4-108" data-name="Ellipse 4" cx="3" cy="3" r="3" transform="translate(168 70)" fill="#0070c5"/>
  <circle id="Ellipse_4-109" data-name="Ellipse 4" cx="3" cy="3" r="3" transform="translate(182 70)" fill="#0070c5"/>
  <circle id="Ellipse_4-110" data-name="Ellipse 4" cx="3" cy="3" r="3" transform="translate(196 70)" fill="#0070c5"/>
  <circle id="Ellipse_4-111" data-name="Ellipse 4" cx="3" cy="3" r="3" transform="translate(210 70)" fill="#0070c5"/>
  <circle id="Ellipse_4-112" data-name="Ellipse 4" cx="3" cy="3" r="3" transform="translate(224 70)" fill="#0070c5"/>
  <circle id="Ellipse_4-113" data-name="Ellipse 4" cx="3" cy="3" r="3" transform="translate(238 70)" fill="#0070c5"/>
  <circle id="Ellipse_4-114" data-name="Ellipse 4" cx="3" cy="3" r="3" transform="translate(266 70)" fill="#0070c5"/>
  <circle id="Ellipse_4-115" data-name="Ellipse 4" cx="3" cy="3" r="3" transform="translate(308 70)" fill="#0070c5"/>
  <circle id="Ellipse_4-116" data-name="Ellipse 4" cx="3" cy="3" r="3" transform="translate(0 84)" fill="#0070c5"/>
  <circle id="Ellipse_4-117" data-name="Ellipse 4" cx="3" cy="3" r="3" transform="translate(14 84)" fill="#0070c5"/>
  <circle id="Ellipse_4-118" data-name="Ellipse 4" cx="3" cy="3" r="3" transform="translate(28 84)" fill="#0070c5"/>
  <circle id="Ellipse_4-119" data-name="Ellipse 4" cx="3" cy="3" r="3" transform="translate(42 84)" fill="#0070c5"/>
  <circle id="Ellipse_4-120" data-name="Ellipse 4" cx="3" cy="3" r="3" transform="translate(56 84)" fill="#0070c5"/>
  <circle id="Ellipse_4-121" data-name="Ellipse 4" cx="3" cy="3" r="3" transform="translate(70 84)" fill="#0070c5"/>
  <circle id="Ellipse_4-122" data-name="Ellipse 4" cx="3" cy="3" r="3" transform="translate(84 84)" fill="#0070c5"/>
  <circle id="Ellipse_4-123" data-name="Ellipse 4" cx="3" cy="3" r="3" transform="translate(98 84)" fill="#0070c5"/>
  <circle id="Ellipse_4-124" data-name="Ellipse 4" cx="3" cy="3" r="3" transform="translate(112 84)" fill="#0070c5"/>
  <circle id="Ellipse_4-125" data-name="Ellipse 4" cx="3" cy="3" r="3" transform="translate(126 84)" fill="#0070c5"/>
  <circle id="Ellipse_4-126" data-name="Ellipse 4" cx="3" cy="3" r="3" transform="translate(140 84)" fill="#0070c5"/>
  <circle id="Ellipse_4-127" data-name="Ellipse 4" cx="3" cy="3" r="3" transform="translate(154 84)" fill="#0070c5"/>
  <circle id="Ellipse_4-128" data-name="Ellipse 4" cx="3" cy="3" r="3" transform="translate(168 84)" fill="#0070c5"/>
  <circle id="Ellipse_4-129" data-name="Ellipse 4" cx="3" cy="3" r="3" transform="translate(196 84)" fill="#0070c5"/>
  <circle id="Ellipse_4-130" data-name="Ellipse 4" cx="3" cy="3" r="3" transform="translate(224 84)" fill="#0070c5"/>
  <circle id="Ellipse_4-131" data-name="Ellipse 4" cx="3" cy="3" r="3" transform="translate(238 84)" fill="#0070c5"/>
  <circle id="Ellipse_4-132" data-name="Ellipse 4" cx="3" cy="3" r="3" transform="translate(252 84)" fill="#0070c5"/>
  <circle id="Ellipse_4-133" data-name="Ellipse 4" cx="3" cy="3" r="3" transform="translate(0 98)" fill="#0070c5"/>
  <circle id="Ellipse_4-134" data-name="Ellipse 4" cx="3" cy="3" r="3" transform="translate(14 98)" fill="#0070c5"/>
  <circle id="Ellipse_4-135" data-name="Ellipse 4" cx="3" cy="3" r="3" transform="translate(28 98)" fill="#0070c5"/>
  <circle id="Ellipse_4-136" data-name="Ellipse 4" cx="3" cy="3" r="3" transform="translate(42 98)" fill="#0070c5"/>
  <circle id="Ellipse_4-137" data-name="Ellipse 4" cx="3" cy="3" r="3" transform="translate(56 98)" fill="#0070c5"/>
  <circle id="Ellipse_4-138" data-name="Ellipse 4" cx="3" cy="3" r="3" transform="translate(70 98)" fill="#0070c5"/>
  <circle id="Ellipse_4-139" data-name="Ellipse 4" cx="3" cy="3" r="3" transform="translate(84 98)" fill="#0070c5"/>
  <circle id="Ellipse_4-140" data-name="Ellipse 4" cx="3" cy="3" r="3" transform="translate(98 98)" fill="#0070c5"/>
  <circle id="Ellipse_4-141" data-name="Ellipse 4" cx="3" cy="3" r="3" transform="translate(112 98)" fill="#0070c5"/>
  <circle id="Ellipse_4-142" data-name="Ellipse 4" cx="3" cy="3" r="3" transform="translate(126 98)" fill="#0070c5"/>
  <circle id="Ellipse_4-143" data-name="Ellipse 4" cx="3" cy="3" r="3" transform="translate(140 98)" fill="#0070c5"/>
  <circle id="Ellipse_4-144" data-name="Ellipse 4" cx="3" cy="3" r="3" transform="translate(154 98)" fill="#0070c5"/>
  <circle id="Ellipse_4-145" data-name="Ellipse 4" cx="3" cy="3" r="3" transform="translate(168 98)" fill="#0070c5"/>
  <circle id="Ellipse_4-146" data-name="Ellipse 4" cx="3" cy="3" r="3" transform="translate(182 98)" fill="#0070c5"/>
  <circle id="Ellipse_4-147" data-name="Ellipse 4" cx="3" cy="3" r="3" transform="translate(196 98)" fill="#0070c5"/>
  <circle id="Ellipse_4-148" data-name="Ellipse 4" cx="3" cy="3" r="3" transform="translate(224 98)" fill="#0070c5"/>
  <circle id="Ellipse_4-149" data-name="Ellipse 4" cx="3" cy="3" r="3" transform="translate(252 98)" fill="#0070c5"/>
  <circle id="Ellipse_4-150" data-name="Ellipse 4" cx="3" cy="3" r="3" transform="translate(0 112)" fill="#0070c5"/>
  <circle id="Ellipse_4-151" data-name="Ellipse 4" cx="3" cy="3" r="3" transform="translate(14 112)" fill="#0070c5"/>
  <circle id="Ellipse_4-152" data-name="Ellipse 4" cx="3" cy="3" r="3" transform="translate(28 112)" fill="#0070c5"/>
  <circle id="Ellipse_4-153" data-name="Ellipse 4" cx="3" cy="3" r="3" transform="translate(42 112)" fill="#0070c5"/>
  <circle id="Ellipse_4-154" data-name="Ellipse 4" cx="3" cy="3" r="3" transform="translate(56 112)" fill="#0070c5"/>
  <circle id="Ellipse_4-155" data-name="Ellipse 4" cx="3" cy="3" r="3" transform="translate(70 112)" fill="#0070c5"/>
  <circle id="Ellipse_4-156" data-name="Ellipse 4" cx="3" cy="3" r="3" transform="translate(84 112)" fill="#0070c5"/>
  <circle id="Ellipse_4-157" data-name="Ellipse 4" cx="3" cy="3" r="3" transform="translate(98 112)" fill="#0070c5"/>
  <circle id="Ellipse_4-158" data-name="Ellipse 4" cx="3" cy="3" r="3" transform="translate(112 112)" fill="#0070c5"/>
  <circle id="Ellipse_4-159" data-name="Ellipse 4" cx="3" cy="3" r="3" transform="translate(126 112)" fill="#0070c5"/>
  <circle id="Ellipse_4-160" data-name="Ellipse 4" cx="3" cy="3" r="3" transform="translate(140 112)" fill="#0070c5"/>
  <circle id="Ellipse_4-161" data-name="Ellipse 4" cx="3" cy="3" r="3" transform="translate(154 112)" fill="#0070c5"/>
  <circle id="Ellipse_4-162" data-name="Ellipse 4" cx="3" cy="3" r="3" transform="translate(168 112)" fill="#0070c5"/>
  <circle id="Ellipse_4-163" data-name="Ellipse 4" cx="3" cy="3" r="3" transform="translate(182 112)" fill="#0070c5"/>
  <circle id="Ellipse_4-164" data-name="Ellipse 4" cx="3" cy="3" r="3" transform="translate(196 112)" fill="#0070c5"/>
  <circle id="Ellipse_4-165" data-name="Ellipse 4" cx="3" cy="3" r="3" transform="translate(210 112)" fill="#0070c5"/>
  <circle id="Ellipse_4-166" data-name="Ellipse 4" cx="3" cy="3" r="3" transform="translate(224 112)" fill="#0070c5"/>
</svg>
