<svg xmlns="http://www.w3.org/2000/svg" width="671.117" height="676.351" viewBox="0 0 671.117 676.351">
  <g id="Group_523" data-name="Group 523" transform="translate(-735.442 -183.324)">
    <path id="Path_400" data-name="Path 400" d="M238.8,159.535,385.522,92.461l-36.277,150.71-.054.208Zm110.315,83.6.08-.111ZM239.336,159.593,349.025,242.9l36.1-149.954Z" transform="translate(1368.149 283.34) rotate(90)" fill="#dfdfe8"/>
    <path id="Path_401" data-name="Path 401" d="M233.211,93.991l76.977,64.376-153.57,11.169-.371.019Zm-76.505,75.5-.095-.1Zm.269-.264,152.5-11.093L233.226,94.364Z" transform="translate(1363.385 248.045) rotate(90)" fill="#dfdfe8"/>
    <path id="Path_402" data-name="Path 402" d="M114.928,154.089,268.587,94.022l.149.23-76.611,75.218-.054.05Zm77.1,15.283.026-.137ZM115.91,154.005l76.071,15.215,76.073-74.689Z" transform="translate(1363.367 230.939) rotate(90)" fill="#dfdfe8"/>
    <path id="Path_403" data-name="Path 403" d="M115.071,126.241l76.862,15.374-.028.136.028-.136.162.033-35.013,91.025Zm42.007,105.664,34.639-90.048-76.2-15.241Z" transform="translate(1350.704 236.128) rotate(90)" fill="#dfdfe8"/>
    <path id="Path_404" data-name="Path 404" d="M298.112,188.972l163.1-33.455.1.253-159,104.6Zm.292.227,4.162,70.677L460.55,155.936Z" transform="translate(1337.61 275.228) rotate(90)" fill="#dfdfe8"/>
    <path id="Path_405" data-name="Path 405" d="M300.313,260.231,459.674,155.384,382.86,322.974l-.074.16Zm82.423,62.691.085-.111Zm-81.943-62.678L382.685,322.7l76.331-166.55Z" transform="translate(1343.746 277.115) rotate(90)" fill="#dfdfe8"/>
    <path id="Path_406" data-name="Path 406" d="M267.37,419.452l61.345-207.733,82.475,62.892L267.6,419.591Zm.267.078-.136-.039Zm.156-.527L410.762,274.64,328.869,212.18Z" transform="translate(1327.124 295.797) rotate(90)" fill="#dfdfe8"/>
    <path id="Path_407" data-name="Path 407" d="M221.2,273.225l134.121,93.607L165.582,410.083l-.267.059ZM165.679,410l-.128-.05Zm.1-.245L354.655,366.7,221.328,273.652Z" transform="translate(1290.631 247.737) rotate(90)" fill="#dfdfe8"/>
    <path id="Path_408" data-name="Path 408" d="M165.284,366.8,355.33,323.473,264.589,454.708l-.091.128Zm99.192,87.836.089-.106Zm-98.607-87.684,98.579,87.474,90.247-130.514Z" transform="translate(1291.647 247.72) rotate(90)" fill="#dfdfe8"/>
    <path id="Path_409" data-name="Path 409" d="M267.292,390.72,411.247,245.374,383.321,417.132l-.028.147Zm115.894,26.388.03-.134Zm-115.34-26.546,115.223,26.376,27.762-170.753Z" transform="translate(1308.066 295.741) rotate(90)" fill="#dfdfe8"/>
    <path id="Path_410" data-name="Path 410" d="M421.487,155.343l20.968,129.983-.132.022.132-.022.019.113-97.927,37.767ZM345.082,322.7l97.082-37.446-20.8-128.978Z" transform="translate(1343.774 315.034) rotate(90)" fill="#dfdfe8"/>
    <path id="Path_411" data-name="Path 411" d="M238.881,182.605,328.03,65.6l.089-.117,57.387,50.385L239.052,182.819Zm.561-.273L385,115.795,328.162,65.889ZM328.051,65.788l.093-.1Z" transform="translate(1350.425 283.39) rotate(90)" fill="#dfdfe8"/>
    <path id="Path_412" data-name="Path 412" d="M197.541,118.592l166-53.009.418-.136-89.5,117.478Zm.561.111,76.3,63.819,88.8-116.54Z" transform="translate(1350.455 263.529) rotate(90)" fill="#dfdfe8"/>
    <path id="Path_413" data-name="Path 413" d="M217.174,48.253l146.4,32.067-.032.136.032-.136.518.108-166.5,53.165Zm-19.2,84.928L363,80.482l-145.613-31.9Z" transform="translate(1365.194 263.538) rotate(90)" fill="#dfdfe8"/>
    <path id="Path_414" data-name="Path 414" d="M208.18,60.12l-.009-.269L301.5,34.777l.078-.019,53.3,57.5Zm.615-.15L354.063,91.792,301.488,35.068Zm92.637-24.961.106-.1Z" transform="translate(1376.763 270.516) rotate(90)" fill="#dfdfe8"/>
    <path id="Path_415" data-name="Path 415" d="M168.451,20.817l-.171-.427,74.282,51.852-19.624,85.506Zm54.415,135.989,19.38-84.441L168.876,21.14ZM168.5,20.878l.08-.115Z" transform="translate(1389.079 260.785) rotate(90)" fill="#dfdfe8"/>
    <path id="Path_416" data-name="Path 416" d="M103.885,44.725l-.039-.267,174.629,92.2L124.8,196.726Zm21.147,151.618L277.8,136.62,104.2,44.956ZM103.957,44.828l.065-.121Z" transform="translate(1368.447 224.909) rotate(90)" fill="#dfdfe8"/>
    <path id="Path_417" data-name="Path 417" d="M83.6,132.617,121.25,44.779l.2-.472,21.018,152.782Zm.329-.058,58.139,63.681L121.308,45.353Zm37.308-87.7.139-.019Z" transform="translate(1368.577 222.462) rotate(90)" fill="#dfdfe8"/>
    <path id="Path_418" data-name="Path 418" d="M86.758,72.234l37.9,36.5L36.654,128.289l-.422.089ZM36.724,128.243l-.1-.089Zm.288-.319,87.082-19.354L86.773,72.635Z" transform="translate(1372.66 214.383) rotate(90)" fill="#dfdfe8"/>
    <path id="Path_419" data-name="Path 419" d="M77.752,178.106l.061-.123.085.11-.085-.11-.061.123-.2-.1,69.975-51.778L189.51,232.592Zm111.234,53.916L147.4,126.66l-69.312,51.3Z" transform="translate(1350.707 217.427) rotate(90)" fill="#dfdfe8"/>
    <path id="Path_420" data-name="Path 420" d="M77.713,154.3l-.193-.377,112.1,54.649L120.955,235.2Zm43.37,80.549,67.84-26.306L78.166,154.552ZM77.778,154.362l.061-.126Z" transform="translate(1336.32 217.408) rotate(90)" fill="#dfdfe8"/>
    <path id="Path_421" data-name="Path 421" d="M88.806,91.666l58.817,64.42L77.852,207.718l-.251.188Zm-10.9,115.953-.136-.011Zm.03-.31,69.27-51.264L89.021,92.318Z" transform="translate(1366.521 219.215) rotate(90)" fill="#dfdfe8"/>
    <path id="Path_422" data-name="Path 422" d="M36.31,111.338l88.154-19.592-11.16,115.8-.033.345Zm76.855,96.2.11-.087ZM36.8,111.513l76.26,95.668L124.15,92.1Z" transform="translate(1366.481 214.45) rotate(90)" fill="#dfdfe8"/>
    <path id="Path_423" data-name="Path 423" d="M53.746,191.926l.061-.126.091.108-.091-.108-.061.126-.191-.095,44.867-37.856L141.887,235.3Zm87.487,42.739L98.339,154.408,54.06,191.77Z" transform="translate(1336.301 229.233) rotate(90)" fill="#dfdfe8"/>
    <path id="Path_424" data-name="Path 424" d="M53.584,174.208l88.312,43.45L69.153,244.235l-.149.054Zm15.525,69.9.134-.033Zm.1-.188,71.976-26.3-87.2-42.9Z" transform="translate(1326.04 229.258) rotate(90)" fill="#dfdfe8"/>
    <path id="Path_425" data-name="Path 425" d="M61.859,224.082l72.869-26.627L74.672,316.168l-.2.4ZM74.55,316.109l.137-.022ZM62.165,224.266l12.462,91.372L134.156,197.96Z" transform="translate(1320.649 236.352) rotate(90)" fill="#dfdfe8"/>
    <path id="Path_426" data-name="Path 426" d="M2.491,267.688l110.525-55.962,12.561,92.128-.134.019.039-.136-.039.136.134-.019.032.214Zm.75-.069,122.03,36.056-12.481-91.525Z" transform="translate(1311.212 185.459) rotate(90)" fill="#dfdfe8"/>
    <path id="Path_427" data-name="Path 427" d="M15.312,325.573l99.455-64.43L67.218,366.034l-.074.163Zm51.778,40.41.089-.111Zm-51.3-40.388L67.04,365.761l47.089-103.877Z" transform="translate(1290.813 196.45) rotate(90)" fill="#dfdfe8"/>
    <path id="Path_428" data-name="Path 428" d="M77.092,359.954l-.375-.123L297.473,273.2l-55.89,136.933Zm164.323,49.841,55.548-136.089-219.405,86.1Z" transform="translate(1290.643 211.434) rotate(90)" fill="#dfdfe8"/>
    <path id="Path_429" data-name="Path 429" d="M68.605,261.257l235.58,22.3.039.267L84.139,370.192l-.165.065Zm15.484,108.8.136-.02Zm.111-.193L303.576,283.78,68.928,261.565Z" transform="translate(1291.351 207.634) rotate(90)" fill="#dfdfe8"/>
    <path id="Path_430" data-name="Path 430" d="M43.078,366.158l47.64-105.079L106.109,370.2l-.139.017.009-.137-.009.137.139-.017.024.169Zm.418-.251,62.312,4.157-15.233-108Z" transform="translate(1291.472 220.252) rotate(90)" fill="#dfdfe8"/>
    <path id="Path_431" data-name="Path 431" d="M46.374,317.51l62.81,4.188-.011.139.011-.139.4.028L39.342,369.49ZM39.706,368.9l69.052-46.953L46.609,317.8Z" transform="translate(1256.901 217.049) rotate(90)" fill="#dfdfe8"/>
    <path id="Path_432" data-name="Path 432" d="M76.747,319.7l165.022,50.341L162.163,432.9l-.111.087Zm85.331,113.082.11-.084Zm.024-.2,79.076-62.431-163.7-49.945Z" transform="translate(1266.367 214.556) rotate(90)" fill="#dfdfe8"/>
    <path id="Path_433" data-name="Path 433" d="M78.813,319.63l85.2,113.134-.113.085.113-.085.149.191L74.612,444.147Zm-3.908,124.2,88.743-11.1L79.062,320.419Z" transform="translate(1294.941 217.066) rotate(90)" fill="#dfdfe8"/>
    <path id="Path_434" data-name="Path 434" d="M130.23,26.328l.1-.095.011.137-.011-.137-.1.095-.2-.208,71.431-5.609,54.361,136.606-.228.149ZM255.3,156.558,201.28,20.808l-70.646,5.54Z" transform="translate(1388.976 239.455) rotate(90)" fill="#dfdfe8"/>
    <path id="Path_435" data-name="Path 435" d="M103.806,62.7l48.916-39.13.1-.08L278.275,154.518l-.167.217Zm.5-.045L277.48,154.089,152.8,23.867Zm48.4-38.879.1-.1Z" transform="translate(1386.422 224.904) rotate(90)" fill="#dfdfe8"/>
    <path id="Path_436" data-name="Path 436" d="M168.3,35.469,221.418,3.323l.16-.1,21.037,84.126Zm.507.019,73.346,51.2L221.4,3.66ZM221.353,3.476l.137-.035Z" transform="translate(1403.794 260.794) rotate(90)" fill="#dfdfe8"/>
    <path id="Path_437" data-name="Path 437" d="M166.875,8.992l-.017-.137,55.858-5.588.085.26L169.683,35.675Zm3.038,26.219,52.218-31.6L167.166,9.1Z" transform="translate(1403.759 261.679) rotate(90)" fill="#dfdfe8"/>
    <path id="Path_438" data-name="Path 438" d="M130.161,38.35,198.415,6.311l.175-.084,2.819,26.8L130.23,38.614Zm.813-.072,70.131-5.5L198.355,6.649Zm67.36-31.822.136-.015Z" transform="translate(1401.221 243.442) rotate(90)" fill="#dfdfe8"/>
    <path id="Path_439" data-name="Path 439" d="M280.7,2.627l.152-.182,21.028,60.267-93.9,25.219ZM208.77,87.434l92.749-24.919L280.755,2.993ZM280.675,2.763l.134-.045Z" transform="translate(1404.463 276.888) rotate(90)" fill="#dfdfe8"/>
    <path id="Path_440" data-name="Path 440" d="M196.846,3.916l93.5-1.4.31-.006L217.846,87.923Zm.357.271,20.784,83.143L290.042,2.8Z" transform="translate(1404.403 271.889) rotate(90)" fill="#dfdfe8"/>
    <path id="Path_441" data-name="Path 441" d="M258.248,34.739l31.023,4.233-.02.137.128-.054,22.289,52.928-.23.15ZM311.1,91.364,289.158,39.237,258.976,35.12Z" transform="translate(1376.779 304.917) rotate(90)" fill="#dfdfe8"/>
    <path id="Path_442" data-name="Path 442" d="M268.016,62.574l-20.894-59.9.238-.134L298.9,66.619l-.108.087.021-.137-.021.137.108-.087.227.277Zm.149-.184,30.3,4.131L247.644,3.343Z" transform="translate(1404.378 299.85) rotate(90)" fill="#dfdfe8"/>
    <path id="Path_443" data-name="Path 443" d="M247.007,2.481l97.875,18.175-.022.137.022-.137.258.048L298.878,66.97ZM298.9,66.55l45.673-45.666L247.694,2.893Z" transform="translate(1404.432 293.872) rotate(90)" fill="#dfdfe8"/>
    <path id="Path_444" data-name="Path 444" d="M286.844,89.569l32.1-51.641.171-.277L344.378,140.09Zm.362-.054,56.689,49.774L319.008,38.36ZM318.93,38.038l.134-.035Z" transform="translate(1374.281 317.798) rotate(90)" fill="#dfdfe8"/>
    <path id="Path_445" data-name="Path 445" d="M274.763,58.577,321.15,12.185l8.406,47.625-.136.026,0-.139,0,.139.136-.026.026.169Zm.659-.267,53.83,1.384-8.281-46.929Z" transform="translate(1396.113 312.504) rotate(90)" fill="#dfdfe8"/>
    <path id="Path_446" data-name="Path 446" d="M274.827,37.016l54.542,1.393,0,.143,0-.143.243,0L297.3,90.389Zm22.525,52.772,31.764-51.1L275.252,37.3Z" transform="translate(1374.827 312.538) rotate(90)" fill="#dfdfe8"/>
    <path id="Path_447" data-name="Path 447" d="M304.1,41.657l75.374-8.378.243-.026L329.3,143.885Zm.347.24,24.941,101.145L379.263,33.585Z" transform="translate(1378.053 323.093) rotate(90)" fill="#dfdfe8"/>
    <path id="Path_448" data-name="Path 448" d="M299.594,12.213l83.817,39.115-.059.124.059-.124.47.21-75.865,8.424Zm8.653,47.447,74.6-8.287L299.956,12.692Z" transform="translate(1396.089 319.656) rotate(90)" fill="#dfdfe8"/>
    <path id="Path_449" data-name="Path 449" d="M367.931,33.225,422.4,77.907l-.089.11.089-.11.149.124L317.522,143.844ZM318.155,143.12,422.068,78l-54.036-44.34Z" transform="translate(1378.077 324.211) rotate(90)" fill="#dfdfe8"/>
    <path id="Path_450" data-name="Path 450" d="M378.413,57.163,434.449,121.6l-65.607,40.484-.241.147Zm-9.5,104.815-.137-.011Zm.026-.279,65.091-40.161L378.63,57.83Z" transform="translate(1357.557 335.654) rotate(90)" fill="#dfdfe8"/>
    <path id="Path_451" data-name="Path 451" d="M298.144,225.028,429.08,113.591l.145-.124L461.4,191.805,298.263,225.269Zm.59-.141L461.013,191.6l-31.9-77.674ZM429.041,113.751l.128-.054Z" transform="translate(1356.706 275.255) rotate(90)" fill="#dfdfe8"/>
    <path id="Path_452" data-name="Path 452" d="M317.528,122.955,422.468,57.2l-9.778,104.748-.017.191Zm95.026,38.982.054-.132ZM318.133,122.9l94.3,38.828,9.708-104Z" transform="translate(1357.525 324.229) rotate(90)" fill="#dfdfe8"/>
    <path id="Path_453" data-name="Path 453" d="M334.419,92.489l94.87,39.063-.05.13.05-.13.214.087L298.065,243.5ZM298.537,242.732,428.975,131.723l-94.361-38.85Z" transform="translate(1368.143 310.983) rotate(90)" fill="#dfdfe8"/>
    <path id="Path_454" data-name="Path 454" d="M397.125,225.457l.214-.173,89.213,75.272-15.339,61.376-.093.353ZM471.077,361.9l.123-.067Zm-.048-.383,15.211-60.862-88.522-74.681Z" transform="translate(1310.984 360.106) rotate(90)" fill="#dfdfe8"/>
    <path id="Path_455" data-name="Path 455" d="M344.519,263l97.89-37.756,73.885,136.611-.123.067.071-.121-.071.121.123-.067.245.446Zm.643.05,170.655,98.5L442.281,225.6Z" transform="translate(1311.007 315.01) rotate(90)" fill="#dfdfe8"/>
    <path id="Path_456" data-name="Path 456" d="M428.642,227.312l-.045-.13,39.333-15.456L459.555,312.24l-.271.035Zm30.689,84.267,8.285-99.426L428.95,227.342Z" transform="translate(1312.177 387.085) rotate(90)" fill="#dfdfe8"/>
    <path id="Path_457" data-name="Path 457" d="M449.535,164.58l.277,0,18.13,87.872-39.11,15.361-.243.1ZM428.918,267.712l-.137-.028Zm.05-.251,38.649-15.187-17.945-86.969Z" transform="translate(1333.453 387.078) rotate(90)" fill="#dfdfe8"/>
    <path id="Path_458" data-name="Path 458" d="M397.02,229.829l58.8-9.8.11-.019,30.687,85.077-.221.15Zm.641.173,88.516,74.685L455.752,220.32Zm58.052-9.791.132-.046Z" transform="translate(1306.631 360.016) rotate(90)" fill="#dfdfe8"/>
    <path id="Path_459" data-name="Path 459" d="M385.789,155.491l100.74,16.788L465.606,275.5l-.067.333Zm79.683,119.98.115-.078Zm-.072-.36,20.8-102.605-99.832-16.637Z" transform="translate(1339.021 350.388) rotate(90)" fill="#dfdfe8"/>
    <path id="Path_460" data-name="Path 460" d="M385.868,155.648l.251-.1,79.4,119.792-.115.078.115-.078.119.18-58.852,9.806Zm21.145,129.361,58.156-9.691L386.247,156.241Z" transform="translate(1339.877 350.456) rotate(90)" fill="#dfdfe8"/>
    <path id="Path_461" data-name="Path 461" d="M412.277,181.125l.085-.11-.135.017-8.361-89.148.266-.076L470.994,226.92l-.212.175ZM470.469,226.5,404.215,92.6l8.283,88.34Z" transform="translate(1367.513 365.885) rotate(90)" fill="#dfdfe8"/>
    <path id="Path_462" data-name="Path 462" d="M385.749,169.259l42.065-29.448.082-.063,58.591,46.032-.11.247Zm.717-.165,99.418,16.567L427.892,140.1Zm41.344-29.06.085-.11Z" transform="translate(1340.299 350.354) rotate(90)" fill="#dfdfe8"/>
    <path id="Path_463" data-name="Path 463" d="M368.553,132.34l65.841-40.625,8.382,89.369-.139.015.078-.117-.078.117.139-.015.028.292Zm.518.007,73.4,48.474L434.16,92.187Z" transform="translate(1365.122 335.613) rotate(90)" fill="#dfdfe8"/>
    <path id="Path_464" data-name="Path 464" d="M368.532,113.4l74.2,48.992-.074.119.074-.119.171.113-42.1,29.469Zm32.4,78.143,41.476-29.029-73.274-48.392Z" transform="translate(1354.65 335.595) rotate(90)" fill="#dfdfe8"/>
    <path id="Path_465" data-name="Path 465" d="M344.566,245.434l171.825,99.175L400.6,426.922l-.162.111ZM400.517,426.8l.134-.035Zm.076-.225,115.279-81.943L345.038,246.023Z" transform="translate(1309.706 315.05) rotate(90)" fill="#dfdfe8"/>
    <path id="Path_466" data-name="Path 466" d="M329.6,417.058l27.883-171.472.271-.019,55.715,181.083-.132.043.017-.141-.017.141.132-.043.067.2Zm.323-.241,83.221,9.712L357.668,246.216Z" transform="translate(1309.598 333.374) rotate(90)" fill="#dfdfe8"/>
    <path id="Path_467" data-name="Path 467" d="M329.469,337.742l84.185,9.812-18.173,47.532-.074.188Zm65.884,57.294.089-.106Zm-.061-.236,17.974-47.009-82.956-9.68Z" transform="translate(1248.298 333.269) rotate(90)" fill="#dfdfe8"/>
    <path id="Path_468" data-name="Path 468" d="M342.274,382.562l42.057-14.018.145-.05,11.259,49.247Zm.628.082,52.4,34.476-11.034-48.266Zm41.335-13.937.137-.032Z" transform="translate(1253.055 344.473) rotate(90)" fill="#dfdfe8"/>
    <path id="Path_469" data-name="Path 469" d="M329.537,337.606l65.849,57.443-.093.106.093-.106.184.156-42.154,14.048Zm24.059,71.3L395.023,395.1l-64.907-56.616Z" transform="translate(1250.792 336.407) rotate(90)" fill="#dfdfe8"/>
    <path id="Path_470" data-name="Path 470" d="M383.076,342.994,443.1,365.331l-.05.128.05-.128.381.137-78.667,25.283Zm-17.79,47.315,77.347-24.859-59.4-22.1Z" transform="translate(1244.178 332.41) rotate(90)" fill="#dfdfe8"/>
    <path id="Path_471" data-name="Path 471" d="M364.853,380.2,442.982,355.1l.5-.167-67.4,74.412Zm.329.188,11.054,48.368,66.337-73.239Z" transform="translate(1264.682 332.441) rotate(90)" fill="#dfdfe8"/>
    <path id="Path_472" data-name="Path 472" d="M406.117,372.712l.139-.007-.111-.087,57.11-73.823.234.15L407.532,403.867Zm1.646,30.124,54.709-102.575L406.4,372.747Z" transform="translate(1274.127 367.815) rotate(90)" fill="#dfdfe8"/>
    <path id="Path_473" data-name="Path 473" d="M374.649,380.966,490.26,298.781l.193.193L433.34,372.8l-.106-.084.017.137-58.5,8.358Zm.63-.113,57.877-8.265,56.5-73.038Z" transform="translate(1270.404 340.839) rotate(90)" fill="#dfdfe8"/>
    <path id="Path_474" data-name="Path 474" d="M374.4,346.959l59.032-8.432.149-.024,1.411,31.01Zm1.113.124,59.181,22.025-1.374-30.282Zm57.8-8.411.139-.006Z" transform="translate(1243.593 340.623) rotate(90)" fill="#dfdfe8"/>
    <path id="Path_475" data-name="Path 475" d="M326.829,399.988l.019-.136.086.106-.086-.106-.019.136-.316-.046L356.09,376,409.1,410.879l-.1.253Zm81.607,10.785L356.1,376.345l-28.921,23.409Z" transform="translate(1246.622 332.199) rotate(90)" fill="#dfdfe8"/>
    <path id="Path_476" data-name="Path 476" d="M332.2,337.852l.269-.035,23.71,71.131-29.326,23.743-.249.2Zm-5.3,94.736-.136-.007Zm.018-.316,28.93-23.422-23.418-70.263Z" transform="translate(1279.352 340.815) rotate(90)" fill="#dfdfe8"/>
    <path id="Path_477" data-name="Path 477" d="M267.229,323.466l116.154,26.588-5.577,94.836-.02.334ZM377.662,444.883l.106-.093Zm-.115-.338,5.542-94.274L268.022,323.932Z" transform="translate(1291.653 300.196) rotate(90)" fill="#dfdfe8"/>
    <path id="Path_478" data-name="Path 478" d="M326.617,388.754l82.714,11.216-82.5,54.531-.219.137Zm.277,65.629h0Zm0-.26,81.654-53.977-81.654-11.073Z" transform="translate(1235.686 332.226) rotate(90)" fill="#dfdfe8"/>
    <path id="Path_479" data-name="Path 479" d="M360.454,388.623v65.971L287.47,481.257ZM288.3,480.659,360.174,454.4V389.427Z" transform="translate(1235.798 315.843) rotate(90)" fill="#dfdfe8"/>
    <path id="Path_480" data-name="Path 480" d="M239.081,447.607l-.36-.134,163.785-58.787-72.789,92.385Zm90.541,33.131,72.07-91.469L239.538,447.477Z" transform="translate(1235.744 280.668) rotate(90)" fill="#dfdfe8"/>
    <path id="Path_481" data-name="Path 481" d="M291.905,323.443,402.257,444.962l-163.17,58.574-.26.089Zm-52.733,180-.132-.039Zm.078-.264,162.52-58.343L292.033,323.995Z" transform="translate(1291.673 280.767) rotate(90)" fill="#dfdfe8"/>
    <path id="Path_482" data-name="Path 482" d="M218.6,454.564l90.6-131.015.245.117L256.512,503.352l-.078.266Zm37.786,48.753.108-.085Zm-37.442-48.76,37.382,48.459,52.612-178.6Z" transform="translate(1291.582 282.028) rotate(90)" fill="#dfdfe8"/>
    <path id="Path_483" data-name="Path 483" d="M240.817,420.237l91.22,33.674-95.252,15.408-.176.028ZM236.9,469.194l-.137-.009Zm.015-.175,94.019-15.209-89.874-33.185Z" transform="translate(1208.697 289.57) rotate(90)" fill="#dfdfe8"/>
    <path id="Path_484" data-name="Path 484" d="M176.7,462.361l-.039-.269L292.479,420.23l-4.207,49.1Zm111.319,6.679,4.143-48.4L177.4,462.124Z" transform="translate(1208.703 260.623) rotate(90)" fill="#dfdfe8"/>
    <path id="Path_485" data-name="Path 485" d="M254.913,393.971l37.832,49.04L176.952,484.866l-.509.178Zm-77.9,90.854-.106-.091Zm.344-.4L292.29,442.88,254.9,394.411Z" transform="translate(1231.214 260.476) rotate(90)" fill="#dfdfe8"/>
    <path id="Path_486" data-name="Path 486" d="M74.511,391.725l89.868-11.238-46.253,46.257-.091.089Zm43.517,34.92.085-.108ZM75.189,391.92l42.828,34.539,45.59-45.592Z" transform="translate(1242.772 217.007) rotate(90)" fill="#dfdfe8"/>
    <path id="Path_487" data-name="Path 487" d="M43.185,386.967l-.1-.1,63.026-67.219-4.192,124.66Zm58.47,56.69,4.158-123.286L43.477,386.863Z" transform="translate(1294.926 220.26) rotate(90)" fill="#dfdfe8"/>
    <path id="Path_488" data-name="Path 488" d="M39.351,367.194l69.736-47.415.178.21-62.68,66.859-.16.167Zm7.134,19.561.126-.046Zm-6.8-19.451,6.851,19.187L108.2,320.715Z" transform="translate(1258.289 217.057) rotate(90)" fill="#dfdfe8"/>
    <path id="Path_489" data-name="Path 489" d="M21.443,314.741,21.3,314.5l40.817,5.626L55.076,372.2Zm33.466,56.62,6.894-51-39.975-5.514ZM21.543,314.81l.019-.137Z" transform="translate(1259.218 201.583) rotate(90)" fill="#dfdfe8"/>
    <path id="Path_490" data-name="Path 490" d="M26.688,330.977l.02-.137.13-.045-.13.045-.02.137-.089-.011L15.3,295.637l52.294,40.98Zm39.92,5.224L15.835,296.4l10.978,34.309Z" transform="translate(1265.628 196.438) rotate(90)" fill="#dfdfe8"/>
    <path id="Path_491" data-name="Path 491" d="M4.153,273.995l-.065-.175,119.969-12.555.093.258L25.108,325.689Zm21.085,51.273L123.511,261.6,4.482,274.063Z" transform="translate(1285.044 186.828) rotate(90)" fill="#dfdfe8"/>
    <path id="Path_492" data-name="Path 492" d="M2.611,241.738l122.767,36.274-.026.271L5.56,290.819l-.147.015ZM5.547,290.68l.137-.007Zm.13-.152,118.942-12.451L2.91,242.121Z" transform="translate(1292.273 185.562) rotate(90)" fill="#dfdfe8"/>
    <path id="Path_493" data-name="Path 493" d="M2.846,210.776l.043-.13.048.13-.048-.13-.043.13-.384-.119L97.711,174.24l15.411,70.04Zm109.895,33.1L97.5,174.615,3.318,210.631Z" transform="translate(1326.021 185.434) rotate(90)" fill="#dfdfe8"/>
    <path id="Path_494" data-name="Path 494" d="M2.616,193.928v-.188l110.556,33.586L2.616,283.3Zm.277,88.923L112.425,227.39,2.9,194.117Zm-.176-88.789.039-.134Z" transform="translate(1319.017 185.566) rotate(90)" fill="#dfdfe8"/>
    <path id="Path_495" data-name="Path 495" d="M12.419,167.508l85.1,12.555.026.266L2.826,216.545l-.236.091Zm-9.5,48.933-.137-.026Zm.048-.245,93.989-35.939L12.64,167.82Z" transform="translate(1327.369 185.544) rotate(90)" fill="#dfdfe8"/>
    <path id="Path_496" data-name="Path 496" d="M17.8,136.318l-.353-.379,112.176,33.655L84.751,207.452Zm66.974,70.752,44.277-37.358-110.686-33.2ZM17.86,136.357l.041-.134Z" transform="translate(1343.829 198.279) rotate(90)" fill="#dfdfe8"/>
    <path id="Path_497" data-name="Path 497" d="M17.747,165.273l.041-.132.121.063-.121-.063-.041.132-.167-.05,35.009-63.016,77.022,96.625Zm111.087,33.033-76.2-95.6L17.992,165.054Z" transform="translate(1360.773 198.394) rotate(90)" fill="#dfdfe8"/>
    <path id="Path_498" data-name="Path 498" d="M7.843,194.829,26,136.172l.072-.223,67.3,71.5Zm.364-.227,84.412,12.453L26.2,136.48Zm17.828-58.293.1-.095Z" transform="translate(1343.823 190.047) rotate(90)" fill="#dfdfe8"/>
    <path id="Path_499" data-name="Path 499" d="M74.642,73.054,106.78,43.767l22.8,1.419L74.8,73.28Zm.188.208-.093-.106Zm.776-.708L128.545,45.4l-21.678-1.395Z" transform="translate(1369.04 218.412) rotate(90)" fill="#dfdfe8"/>
    <path id="Path_500" data-name="Path 500" d="M74.635,72.629l-.032-.11,54.772-28.093L91.454,132.9ZM91.509,132.07l37.3-87.034L74.932,72.666Z" transform="translate(1368.474 218.4) rotate(90)" fill="#dfdfe8"/>
    <path id="Path_501" data-name="Path 501" d="M63.336,83.412l20.983-23.78.169-.195,16.929,60.645Zm.388-.019,37.145,35.77L84.362,60.007ZM84.293,59.76l.132-.033Z" transform="translate(1355.606 237.618) rotate(90)" fill="#dfdfe8"/>
    <path id="Path_502" data-name="Path 502" d="M36.386,138.938l71.038-79.4.106.091-.106-.091.106.091-.106-.091.212.184-20.9,23.68L36.594,139.125Z" transform="translate(1355.517 214.515) rotate(90)" fill="#dfdfe8"/>
    <path id="Path_503" data-name="Path 503" d="M121.219,458.742l.039-.134.137,0-.137,0-.039.134-.1-.031L123.9,380.6l.275-.026,22.348,85.2Zm24.913,6.63-21.986-83.819L121.4,458.507Z" transform="translate(1242.699 241.958) rotate(90)" fill="#dfdfe8"/>
    <path id="Path_504" data-name="Path 504" d="M97.825,426.729l46.331-46.323-2.8,78.351-.007.269Zm43.4,32.024.082-.113ZM98.252,426.7l42.839,31.783,2.764-77.382Z" transform="translate(1242.842 229.721) rotate(90)" fill="#dfdfe8"/>
    <path id="Path_505" data-name="Path 505" d="M147.551,465.317l-.293-.108,132.605-71.184.167.214-78.065,90.613Zm54.328,19.208,77.451-89.9L147.941,465.161Z" transform="translate(1231.167 246.274) rotate(90)" fill="#dfdfe8"/>
    <path id="Path_506" data-name="Path 506" d="M180.877,346.7,280.1,434.743,147.6,505.876l-.266.141ZM147.671,505.783l-.137-.026Zm.061-.292,131.888-70.8-98.573-87.463Z" transform="translate(1271.737 246.307) rotate(90)" fill="#dfdfe8"/>
    <path id="Path_507" data-name="Path 507" d="M122.6,409.64l79.78-62.983-33.5,159.164-.082.412Zm46.139,96.153.126-.063Zm-45.792-96.075,45.74,95.642,33.267-158.014Z" transform="translate(1271.773 239.405) rotate(90)" fill="#dfdfe8"/>
    <path id="Path_508" data-name="Path 508" d="M144.906,465.623l-22.287-84.972.26-.093,45.969,96.11-.126.061.058-.124-.058.124.126-.061.178.362Zm.193-.163,23.329,10.98L123.258,382Z" transform="translate(1242.712 241.476) rotate(90)" fill="#dfdfe8"/>
    <path id="Path_509" data-name="Path 509" d="M169.909,440.887h0l0,0-48.74-18.1.087-.262,25.093,6.972,23.682,11.142-.059.128.046-.132-.046.132.059-.128-.106.258Zm-3-1.412-20.662-9.726-21.923-6.092Z" transform="translate(1206.741 240.642) rotate(90)" fill="#dfdfe8"/>
    <path id="Path_510" data-name="Path 510" d="M104.777,59.459h0l-.054-.124.054.124-.113-.254L220.275,6.273l.117.254L152.133,38.567,104.877,59.414Zm18.244-8.352,29-12.795,41.721-19.585Z" transform="translate(1401.182 229.122) rotate(90)" fill="#dfdfe8"/>
    <path id="Path_511" data-name="Path 511" d="M105.271,44.536l0-.084,47.44-20.929.145.238-49.007,39.2Zm-1.09,17.809,47.67-38.138L105.544,44.638Z" transform="translate(1386.394 232.445) rotate(90)" fill="#dfdfe8"/>
    <path id="Path_512" data-name="Path 512" d="M91.725,51.8l24-16.945.24-.169-1.421,18.539Zm.8-.23,21.756,1.359,1.361-17.675Z" transform="translate(1376.822 227.779) rotate(90)" fill="#dfdfe8"/>
    <path id="Path_513" data-name="Path 513" d="M156.357,139.682l153.659-11.177L180.308,315.4l-.2.3ZM180.2,315.316l.137-.019ZM156.671,139.936l23.613,175,129.177-186.11Z" transform="translate(1356.362 248.119) rotate(90)" fill="#dfdfe8"/>
    <path id="Path_514" data-name="Path 514" d="M68.7,289.2l-.03-.271,186.651-59.9.1-.035,48.951,82.513Zm.7-.214,234.46,22.194L255.3,229.333Zm185.849-59.751.119-.069Z" transform="translate(1302.213 207.652) rotate(90)" fill="#dfdfe8"/>
    <path id="Path_515" data-name="Path 515" d="M137.607,225.171l34.851-90.607.267.033L196.407,310.1l-.137.02.113-.08-.113.08.137-.02-.253.1Zm.314-.033,58.128,84.419L172.523,135.175Z" transform="translate(1352.894 247.748) rotate(90)" fill="#dfdfe8"/>
    <path id="Path_516" data-name="Path 516" d="M100.75,209.873l68.66-26.622,58.566,85.056-.113.08.056-.126-.056.126.113-.08.3.42Zm.711.024,126,58.15-58.154-84.456Z" transform="translate(1323.351 226.712) rotate(90)" fill="#dfdfe8"/>
    <path id="Path_517" data-name="Path 517" d="M128.648,197.493l126.883,58.559-.058.126.058-.126.329.149L68.544,316.308ZM69.092,315.836l185.994-59.684L128.778,197.861Z" transform="translate(1320.598 210.163) rotate(90)" fill="#dfdfe8"/>
    <path id="Path_518" data-name="Path 518" d="M234.39,285.066,353,173.427l4.2,71.444L234.531,285.3Zm.193.2-.1-.1Zm.455-.427,121.88-40.165-4.153-70.636Z" transform="translate(1330.368 284.92) rotate(90)" fill="#dfdfe8"/>
    <path id="Path_519" data-name="Path 519" d="M234.393,252.386l-.048-.137,122.966-40.527L295.829,419.945Zm61.4,166.659,61.1-206.887L234.707,252.423Z" transform="translate(1327.18 284.88) rotate(90)" fill="#dfdfe8"/>
    <path id="Path_520" data-name="Path 520" d="M242.742,128.446,353.13,212.28,234.611,323.824l-.254.238Zm-8.09,195.285-.137,0Zm.015-.342L352.7,212.3,243,128.988Z" transform="translate(1357.178 285.462) rotate(90)" fill="#dfdfe8"/>
    <path id="Path_521" data-name="Path 521" d="M195.328,307.551l72.546-73.94.154-.156,61.523,167.778Zm.425-.033,133.226,92.975L267.918,233.961Zm72.089-73.76.132-.046Z" transform="translate(1312.191 266.651) rotate(90)" fill="#dfdfe8"/>
    <path id="Path_522" data-name="Path 522" d="M169.056,315.582,299.009,128.335l-8.378,195.491-.007.141Zm121.438,8.239.011-.141Zm-120.934-8.48,120.8,8.33,8.33-194.384Z" transform="translate(1357.222 255.881) rotate(90)" fill="#dfdfe8"/>
    <path id="Path_523" data-name="Path 523" d="M169.054,229.007l121.452,8.376-.009.137.009-.137.3.017-72.77,74.174Zm49.035,82.11,72.1-73.48-120.624-8.32Z" transform="translate(1302.217 256.706) rotate(90)" fill="#dfdfe8"/>
    <path id="Path_524" data-name="Path 524" d="M7.752,242.879A3.876,3.876,0,1,1,3.876,239a3.873,3.873,0,0,1,3.876,3.878" transform="translate(1288.154 183.324) rotate(90)" fill="#dfdfe8"/>
    <path id="Path_525" data-name="Path 525" d="M8.952,269.078A3.876,3.876,0,1,1,5.076,265.2a3.873,3.873,0,0,1,3.876,3.878" transform="translate(1275.176 183.919) rotate(90)" fill="#dfdfe8"/>
    <path id="Path_526" data-name="Path 526" d="M20.952,297.478a3.876,3.876,0,1,1-3.876-3.878,3.873,3.873,0,0,1,3.876,3.878" transform="translate(1261.105 189.864) rotate(90)" fill="#dfdfe8"/>
    <path id="Path_527" data-name="Path 527" d="M47.752,318.677a3.876,3.876,0,1,1-3.876-3.878,3.873,3.873,0,0,1,3.876,3.878" transform="translate(1250.604 203.141) rotate(90)" fill="#dfdfe8"/>
    <path id="Path_528" data-name="Path 528" d="M26.552,316.277a3.876,3.876,0,1,1-3.876-3.879,3.878,3.878,0,0,1,3.876,3.879" transform="translate(1251.793 192.638) rotate(90)" fill="#dfdfe8"/>
    <path id="Path_529" data-name="Path 529" d="M44.152,345.876A3.876,3.876,0,1,1,40.276,342a3.874,3.874,0,0,1,3.876,3.875" transform="translate(1237.127 201.357) rotate(90)" fill="#dfdfe8"/>
    <path id="Path_530" data-name="Path 530" d="M48.152,357.078a3.876,3.876,0,1,1-3.876-3.878,3.873,3.873,0,0,1,3.876,3.878" transform="translate(1231.579 203.339) rotate(90)" fill="#dfdfe8"/>
    <path id="Path_531" data-name="Path 531" d="M79.352,387.478a3.876,3.876,0,1,1-3.876-3.878,3.873,3.873,0,0,1,3.876,3.878" transform="translate(1216.519 218.796) rotate(90)" fill="#dfdfe8"/>
    <path id="Path_532" data-name="Path 532" d="M102.952,407.078a3.876,3.876,0,1,1-3.876-3.878,3.873,3.873,0,0,1,3.876,3.878" transform="translate(1206.809 230.488) rotate(90)" fill="#dfdfe8"/>
    <path id="Path_533" data-name="Path 533" d="M126.552,423.478a3.876,3.876,0,1,1-3.876-3.878,3.873,3.873,0,0,1,3.876,3.878" transform="translate(1198.684 242.179) rotate(90)" fill="#dfdfe8"/>
    <path id="Path_534" data-name="Path 534" d="M138.152,428.276a3.876,3.876,0,1,1-3.876-3.875,3.874,3.874,0,0,1,3.876,3.875" transform="translate(1196.305 247.926) rotate(90)" fill="#dfdfe8"/>
    <path id="Path_535" data-name="Path 535" d="M152.552,433.478a3.876,3.876,0,1,1-3.876-3.878,3.873,3.873,0,0,1,3.876,3.878" transform="translate(1193.729 255.06) rotate(90)" fill="#dfdfe8"/>
    <path id="Path_536" data-name="Path 536" d="M182.152,443.879A3.876,3.876,0,1,1,178.276,440a3.873,3.873,0,0,1,3.876,3.878" transform="translate(1188.576 269.724) rotate(90)" fill="#dfdfe8"/>
    <path id="Path_537" data-name="Path 537" d="M241.352,447.478a3.876,3.876,0,1,1-3.878-3.878,3.871,3.871,0,0,1,3.878,3.878" transform="translate(1186.794 299.053) rotate(90)" fill="#dfdfe8"/>
    <path id="Path_538" data-name="Path 538" d="M292.951,439.876A3.876,3.876,0,1,1,289.077,436a3.871,3.871,0,0,1,3.875,3.875" transform="translate(1190.559 324.615) rotate(90)" fill="#dfdfe8"/>
    <path id="Path_539" data-name="Path 539" d="M202.552,95.076a3.876,3.876,0,1,1-3.876-3.876,3.875,3.875,0,0,1,3.876,3.876" transform="translate(1361.377 279.831) rotate(90)" fill="#dfdfe8"/>
    <path id="Path_540" data-name="Path 540" d="M213.352,49.626a3.876,3.876,0,1,1-3.876-3.876,3.875,3.875,0,0,1,3.876,3.876" transform="translate(1383.894 285.181) rotate(90)" fill="#dfdfe8"/>
    <path id="Path_541" data-name="Path 541" d="M263.6,36.126a3.876,3.876,0,1,1-3.875-3.876,3.877,3.877,0,0,1,3.875,3.876" transform="translate(1390.582 310.076) rotate(90)" fill="#dfdfe8"/>
    <path id="Path_542" data-name="Path 542" d="M279.752,37.676a3.876,3.876,0,1,1-3.875-3.876,3.873,3.873,0,0,1,3.875,3.876" transform="translate(1389.813 318.077) rotate(90)" fill="#dfdfe8"/>
    <path id="Path_543" data-name="Path 543" d="M291.752,67.077a3.876,3.876,0,1,1-3.875-3.876,3.873,3.873,0,0,1,3.875,3.876" transform="translate(1375.248 324.021) rotate(90)" fill="#dfdfe8"/>
    <path id="Path_544" data-name="Path 544" d="M309.352,39.126a3.876,3.876,0,1,1-3.875-3.876,3.877,3.877,0,0,1,3.875,3.876" transform="translate(1389.096 332.741) rotate(90)" fill="#dfdfe8"/>
    <path id="Path_545" data-name="Path 545" d="M322.852,93.876A3.876,3.876,0,1,1,318.978,90a3.877,3.877,0,0,1,3.875,3.876" transform="translate(1361.972 339.429) rotate(90)" fill="#dfdfe8"/>
    <path id="Path_546" data-name="Path 546" d="M373.852,114.876A3.876,3.876,0,1,1,369.978,111a3.877,3.877,0,0,1,3.875,3.876" transform="translate(1351.568 364.695) rotate(90)" fill="#dfdfe8"/>
    <path id="Path_547" data-name="Path 547" d="M391.357,157.077a3.878,3.878,0,1,1-3.879-3.876,3.878,3.878,0,0,1,3.879,3.876" transform="translate(1330.661 373.365) rotate(90)" fill="#dfdfe8"/>
    <path id="Path_548" data-name="Path 548" d="M412.556,140.676a3.878,3.878,0,1,1-3.879-3.876,3.878,3.878,0,0,1,3.879,3.876" transform="translate(1338.786 383.867) rotate(90)" fill="#dfdfe8"/>
    <path id="Path_549" data-name="Path 549" d="M402.951,226.476a3.876,3.876,0,1,1-3.875-3.876,3.875,3.875,0,0,1,3.875,3.876" transform="translate(1296.28 379.111) rotate(90)" fill="#dfdfe8"/>
    <path id="Path_550" data-name="Path 550" d="M433.752,220.877A3.876,3.876,0,1,1,429.878,217a3.878,3.878,0,0,1,3.875,3.876" transform="translate(1299.054 394.37) rotate(90)" fill="#dfdfe8"/>
    <path id="Path_551" data-name="Path 551" d="M350.553,246.676a3.876,3.876,0,1,1-3.878-3.875,3.88,3.88,0,0,1,3.878,3.875" transform="translate(1286.272 353.152) rotate(90)" fill="#dfdfe8"/>
    <path id="Path_552" data-name="Path 552" d="M305.956,213.076a3.878,3.878,0,1,1-3.879-3.876,3.879,3.879,0,0,1,3.879,3.876" transform="translate(1302.918 331.056) rotate(90)" fill="#dfdfe8"/>
    <path id="Path_553" data-name="Path 553" d="M303.352,174.876A3.876,3.876,0,1,1,299.478,171a3.878,3.878,0,0,1,3.875,3.876" transform="translate(1321.843 329.768) rotate(90)" fill="#dfdfe8"/>
    <path id="Path_554" data-name="Path 554" d="M244.1,129.876A3.876,3.876,0,1,1,240.228,126a3.878,3.878,0,0,1,3.875,3.876" transform="translate(1344.137 300.415) rotate(90)" fill="#dfdfe8"/>
    <path id="Path_555" data-name="Path 555" d="M161.6,135.876A3.876,3.876,0,1,1,157.726,132a3.878,3.878,0,0,1,3.876,3.876" transform="translate(1341.164 259.543) rotate(90)" fill="#dfdfe8"/>
    <path id="Path_556" data-name="Path 556" d="M120.352,127.626a3.876,3.876,0,1,1-3.876-3.876,3.878,3.878,0,0,1,3.876,3.876" transform="translate(1345.251 239.108) rotate(90)" fill="#dfdfe8"/>
    <path id="Path_557" data-name="Path 557" d="M88.852,93.126a3.876,3.876,0,1,1-3.876-3.876,3.878,3.878,0,0,1,3.876,3.876" transform="translate(1362.343 223.502) rotate(90)" fill="#dfdfe8"/>
    <path id="Path_558" data-name="Path 558" d="M82.852,155.376a3.876,3.876,0,1,1-3.876-3.876,3.878,3.878,0,0,1,3.876,3.876" transform="translate(1331.504 220.53) rotate(90)" fill="#dfdfe8"/>
    <path id="Path_559" data-name="Path 559" d="M23.352,138.276a3.876,3.876,0,1,1-3.876-3.876,3.876,3.876,0,0,1,3.876,3.876" transform="translate(1339.976 191.053) rotate(90)" fill="#dfdfe8"/>
    <path id="Path_560" data-name="Path 560" d="M41.752,104.676a3.876,3.876,0,1,1-3.876-3.876,3.877,3.877,0,0,1,3.876,3.876" transform="translate(1356.621 200.168) rotate(90)" fill="#dfdfe8"/>
    <path id="Path_561" data-name="Path 561" d="M58.852,175.626a3.876,3.876,0,1,1-3.876-3.876,3.878,3.878,0,0,1,3.876,3.876" transform="translate(1321.472 208.64) rotate(90)" fill="#dfdfe8"/>
    <path id="Path_562" data-name="Path 562" d="M67.1,213.126a3.876,3.876,0,1,1-3.876-3.876,3.878,3.878,0,0,1,3.876,3.876" transform="translate(1302.894 212.727) rotate(90)" fill="#dfdfe8"/>
    <path id="Path_563" data-name="Path 563" d="M104.952,199.476a3.876,3.876,0,1,1-3.876-3.876,3.877,3.877,0,0,1,3.876,3.876" transform="translate(1309.656 231.478) rotate(90)" fill="#dfdfe8"/>
    <path id="Path_564" data-name="Path 564" d="M141.552,183.477a3.876,3.876,0,1,1-3.876-3.876,3.877,3.877,0,0,1,3.876,3.876" transform="translate(1317.582 249.61) rotate(90)" fill="#dfdfe8"/>
    <path id="Path_565" data-name="Path 565" d="M173.952,229.879A3.876,3.876,0,1,1,170.076,226a3.876,3.876,0,0,1,3.876,3.878" transform="translate(1294.595 265.662) rotate(90)" fill="#dfdfe8"/>
    <path id="Path_566" data-name="Path 566" d="M239.154,234.676a3.878,3.878,0,1,1-3.879-3.875,3.88,3.88,0,0,1,3.879,3.875" transform="translate(1292.217 297.962) rotate(90)" fill="#dfdfe8"/>
    <path id="Path_567" data-name="Path 567" d="M272.6,324.876A3.876,3.876,0,1,1,268.728,321a3.879,3.879,0,0,1,3.875,3.875" transform="translate(1247.531 314.534) rotate(90)" fill="#dfdfe8"/>
    <path id="Path_568" data-name="Path 568" d="M200.6,274.626a3.876,3.876,0,1,1-3.876-3.875,3.879,3.879,0,0,1,3.876,3.875" transform="translate(1272.426 278.865) rotate(90)" fill="#dfdfe8"/>
    <path id="Path_569" data-name="Path 569" d="M74.152,263.276a3.876,3.876,0,1,1-3.876-3.875,3.878,3.878,0,0,1,3.876,3.875" transform="translate(1278.048 216.22) rotate(90)" fill="#dfdfe8"/>
    <path id="Path_570" data-name="Path 570" d="M82.552,320.879A3.876,3.876,0,1,1,78.676,317a3.878,3.878,0,0,1,3.876,3.878" transform="translate(1249.513 220.381) rotate(90)" fill="#dfdfe8"/>
    <path id="Path_571" data-name="Path 571" d="M127.753,381.876A3.876,3.876,0,1,1,123.877,378a3.879,3.879,0,0,1,3.876,3.875" transform="translate(1219.292 242.774) rotate(90)" fill="#dfdfe8"/>
    <path id="Path_572" data-name="Path 572" d="M170.6,348.126a3.876,3.876,0,1,1-3.876-3.875,3.879,3.879,0,0,1,3.876,3.875" transform="translate(1236.013 264.002) rotate(90)" fill="#dfdfe8"/>
    <path id="Path_573" data-name="Path 573" d="M223.852,395.376a3.876,3.876,0,1,1-3.876-3.875,3.879,3.879,0,0,1,3.876,3.875" transform="translate(1212.604 290.383) rotate(90)" fill="#dfdfe8"/>
    <path id="Path_574" data-name="Path 574" d="M244.1,421.626a3.876,3.876,0,1,1-3.875-3.875,3.879,3.879,0,0,1,3.875,3.875" transform="translate(1199.6 300.415) rotate(90)" fill="#dfdfe8"/>
    <path id="Path_575" data-name="Path 575" d="M331.357,391.078a3.878,3.878,0,1,1-3.879-3.879,3.88,3.88,0,0,1,3.879,3.879" transform="translate(1214.735 343.64) rotate(90)" fill="#dfdfe8"/>
    <path id="Path_576" data-name="Path 576" d="M347.6,377.376a3.876,3.876,0,1,1-3.875-3.875,3.879,3.879,0,0,1,3.875,3.875" transform="translate(1221.521 351.69) rotate(90)" fill="#dfdfe8"/>
    <path id="Path_577" data-name="Path 577" d="M370.1,369.876A3.876,3.876,0,1,1,366.228,366a3.879,3.879,0,0,1,3.875,3.875" transform="translate(1225.237 362.837) rotate(90)" fill="#dfdfe8"/>
    <path id="Path_578" data-name="Path 578" d="M379.852,344.376a3.876,3.876,0,1,1-3.875-3.875,3.879,3.879,0,0,1,3.875,3.875" transform="translate(1237.87 367.667) rotate(90)" fill="#dfdfe8"/>
    <path id="Path_579" data-name="Path 579" d="M411.352,339.876A3.876,3.876,0,1,1,407.478,336a3.879,3.879,0,0,1,3.875,3.875" transform="translate(1240.1 383.273) rotate(90)" fill="#dfdfe8"/>
    <path id="Path_580" data-name="Path 580" d="M412.953,357.077a3.876,3.876,0,1,1-3.878-3.875,3.88,3.88,0,0,1,3.878,3.875" transform="translate(1231.578 384.066) rotate(90)" fill="#dfdfe8"/>
    <path id="Path_581" data-name="Path 581" d="M376.1,396.126a3.876,3.876,0,1,1-3.875-3.875,3.879,3.879,0,0,1,3.875,3.875" transform="translate(1212.232 365.809) rotate(90)" fill="#dfdfe8"/>
    <path id="Path_582" data-name="Path 582" d="M331.852,425.376a3.876,3.876,0,1,1-3.875-3.875,3.879,3.879,0,0,1,3.875,3.875" transform="translate(1197.742 343.888) rotate(90)" fill="#dfdfe8"/>
    <path id="Path_583" data-name="Path 583" d="M442.1,300.126a3.876,3.876,0,1,1-3.875-3.875,3.879,3.879,0,0,1,3.875,3.875" transform="translate(1259.792 398.507) rotate(90)" fill="#dfdfe8"/>
    <path id="Path_584" data-name="Path 584" d="M449.752,266.276a3.876,3.876,0,1,1-3.878-3.875,3.88,3.88,0,0,1,3.878,3.875" transform="translate(1276.563 402.297) rotate(90)" fill="#dfdfe8"/>
    <path id="Path_585" data-name="Path 585" d="M454.852,213.126a3.876,3.876,0,1,1-3.875-3.876,3.878,3.878,0,0,1,3.875,3.876" transform="translate(1302.894 404.823) rotate(90)" fill="#dfdfe8"/>
    <path id="Path_586" data-name="Path 586" d="M444.352,166.276a3.876,3.876,0,1,1-3.875-3.875,3.878,3.878,0,0,1,3.875,3.875" transform="translate(1326.104 399.621) rotate(90)" fill="#dfdfe8"/>
    <path id="Path_587" data-name="Path 587" d="M408.352,93.876A3.876,3.876,0,1,1,404.478,90a3.878,3.878,0,0,1,3.875,3.876" transform="translate(1361.972 381.787) rotate(90)" fill="#dfdfe8"/>
    <path id="Path_588" data-name="Path 588" d="M378.951,58.877A3.876,3.876,0,1,1,375.077,55a3.874,3.874,0,0,1,3.875,3.876" transform="translate(1379.311 367.221) rotate(90)" fill="#dfdfe8"/>
    <path id="Path_589" data-name="Path 589" d="M349.852,34.626a3.876,3.876,0,1,1-3.875-3.876,3.878,3.878,0,0,1,3.875,3.876" transform="translate(1391.324 352.805) rotate(90)" fill="#dfdfe8"/>
    <path id="Path_590" data-name="Path 590" d="M304.852,13.626a3.876,3.876,0,1,1-3.875-3.876,3.878,3.878,0,0,1,3.875,3.876" transform="translate(1401.729 330.511) rotate(90)" fill="#dfdfe8"/>
    <path id="Path_591" data-name="Path 591" d="M252.352,3.876A3.876,3.876,0,1,1,248.478,0a3.878,3.878,0,0,1,3.875,3.876" transform="translate(1406.559 304.502) rotate(90)" fill="#dfdfe8"/>
    <path id="Path_592" data-name="Path 592" d="M202.1,4.626A3.876,3.876,0,1,1,198.226.75,3.878,3.878,0,0,1,202.1,4.626" transform="translate(1406.188 279.608) rotate(90)" fill="#dfdfe8"/>
    <path id="Path_593" data-name="Path 593" d="M172.952,7.676A3.876,3.876,0,1,1,169.076,3.8a3.876,3.876,0,0,1,3.876,3.876" transform="translate(1404.676 265.166) rotate(90)" fill="#dfdfe8"/>
    <path id="Path_594" data-name="Path 594" d="M135.552,25.077a3.876,3.876,0,1,1-3.876-3.876,3.877,3.877,0,0,1,3.876,3.876" transform="translate(1396.056 246.638) rotate(90)" fill="#dfdfe8"/>
    <path id="Path_595" data-name="Path 595" d="M173.6,21.876A3.876,3.876,0,1,1,169.726,18a3.878,3.878,0,0,1,3.876,3.876" transform="translate(1397.642 265.488) rotate(90)" fill="#dfdfe8"/>
    <path id="Path_596" data-name="Path 596" d="M108.552,46.077a3.876,3.876,0,1,1-3.876-3.876,3.875,3.875,0,0,1,3.876,3.876" transform="translate(1385.651 233.262) rotate(90)" fill="#dfdfe8"/>
    <path id="Path_597" data-name="Path 597" d="M109.852,36.126a3.876,3.876,0,1,1-3.876-3.876,3.875,3.875,0,0,1,3.876,3.876" transform="translate(1390.582 233.906) rotate(90)" fill="#dfdfe8"/>
    <path id="Path_598" data-name="Path 598" d="M96.152,44.676A3.876,3.876,0,1,1,92.276,40.8a3.875,3.875,0,0,1,3.876,3.876" transform="translate(1386.346 227.119) rotate(90)" fill="#dfdfe8"/>
    <path id="Path_599" data-name="Path 599" d="M79.852,60.876A3.876,3.876,0,1,1,75.976,57a3.875,3.875,0,0,1,3.876,3.876" transform="translate(1378.32 219.043) rotate(90)" fill="#dfdfe8"/>
    <path id="Path_600" data-name="Path 600" d="M13.1,168.876A3.876,3.876,0,1,1,9.226,165a3.875,3.875,0,0,1,3.876,3.876" transform="translate(1324.815 185.975) rotate(90)" fill="#dfdfe8"/>
    <path id="Path_601" data-name="Path 601" d="M8.152,195.477A3.876,3.876,0,1,1,4.276,191.6a3.875,3.875,0,0,1,3.876,3.876" transform="translate(1311.637 183.522) rotate(90)" fill="#dfdfe8"/>
  </g>
</svg>
