<svg xmlns="http://www.w3.org/2000/svg" width="314" height="118" viewBox="0 0 314 118">
  <g id="Group_79" data-name="Group 79" transform="translate(-916 -1061)">
    <circle id="Ellipse_4" data-name="Ellipse 4" cx="3" cy="3" r="3" transform="translate(916 1061)" fill="#00ff84"/>
    <circle id="Ellipse_4-2" data-name="Ellipse 4" cx="3" cy="3" r="3" transform="translate(930 1061)" fill="#00ff84"/>
    <circle id="Ellipse_4-3" data-name="Ellipse 4" cx="3" cy="3" r="3" transform="translate(944 1061)" fill="#00ff84"/>
    <circle id="Ellipse_4-4" data-name="Ellipse 4" cx="3" cy="3" r="3" transform="translate(958 1061)" fill="#00ff84"/>
    <circle id="Ellipse_4-5" data-name="Ellipse 4" cx="3" cy="3" r="3" transform="translate(972 1061)" fill="#00ff84"/>
    <circle id="Ellipse_4-6" data-name="Ellipse 4" cx="3" cy="3" r="3" transform="translate(986 1061)" fill="#00ff84"/>
    <circle id="Ellipse_4-7" data-name="Ellipse 4" cx="3" cy="3" r="3" transform="translate(1000 1061)" fill="#00ff84"/>
    <circle id="Ellipse_4-8" data-name="Ellipse 4" cx="3" cy="3" r="3" transform="translate(1014 1061)" fill="#00ff84"/>
    <circle id="Ellipse_4-9" data-name="Ellipse 4" cx="3" cy="3" r="3" transform="translate(1028 1061)" fill="#00ff84"/>
    <circle id="Ellipse_4-10" data-name="Ellipse 4" cx="3" cy="3" r="3" transform="translate(1042 1061)" fill="#00ff84"/>
    <circle id="Ellipse_4-11" data-name="Ellipse 4" cx="3" cy="3" r="3" transform="translate(1056 1061)" fill="#00ff84"/>
    <circle id="Ellipse_4-12" data-name="Ellipse 4" cx="3" cy="3" r="3" transform="translate(1070 1061)" fill="#00ff84"/>
    <circle id="Ellipse_4-13" data-name="Ellipse 4" cx="3" cy="3" r="3" transform="translate(1084 1061)" fill="#00ff84"/>
    <circle id="Ellipse_4-14" data-name="Ellipse 4" cx="3" cy="3" r="3" transform="translate(1098 1061)" fill="#00ff84"/>
    <circle id="Ellipse_4-15" data-name="Ellipse 4" cx="3" cy="3" r="3" transform="translate(1112 1061)" fill="#00ff84"/>
    <circle id="Ellipse_4-16" data-name="Ellipse 4" cx="3" cy="3" r="3" transform="translate(1126 1061)" fill="#00ff84"/>
    <circle id="Ellipse_4-17" data-name="Ellipse 4" cx="3" cy="3" r="3" transform="translate(1140 1061)" fill="#00ff84"/>
    <circle id="Ellipse_4-18" data-name="Ellipse 4" cx="3" cy="3" r="3" transform="translate(1154 1061)" fill="#00ff84"/>
    <circle id="Ellipse_4-19" data-name="Ellipse 4" cx="3" cy="3" r="3" transform="translate(1168 1061)" fill="#00ff84"/>
    <circle id="Ellipse_4-20" data-name="Ellipse 4" cx="3" cy="3" r="3" transform="translate(1182 1061)" fill="#00ff84"/>
    <circle id="Ellipse_4-21" data-name="Ellipse 4" cx="3" cy="3" r="3" transform="translate(1210 1061)" fill="#00ff84"/>
    <circle id="Ellipse_4-22" data-name="Ellipse 4" cx="3" cy="3" r="3" transform="translate(916 1075)" fill="#00ff84"/>
    <circle id="Ellipse_4-23" data-name="Ellipse 4" cx="3" cy="3" r="3" transform="translate(930 1075)" fill="#00ff84"/>
    <circle id="Ellipse_4-24" data-name="Ellipse 4" cx="3" cy="3" r="3" transform="translate(944 1075)" fill="#00ff84"/>
    <circle id="Ellipse_4-25" data-name="Ellipse 4" cx="3" cy="3" r="3" transform="translate(958 1075)" fill="#00ff84"/>
    <circle id="Ellipse_4-26" data-name="Ellipse 4" cx="3" cy="3" r="3" transform="translate(972 1075)" fill="#00ff84"/>
    <circle id="Ellipse_4-27" data-name="Ellipse 4" cx="3" cy="3" r="3" transform="translate(986 1075)" fill="#00ff84"/>
    <circle id="Ellipse_4-28" data-name="Ellipse 4" cx="3" cy="3" r="3" transform="translate(1000 1075)" fill="#00ff84"/>
    <circle id="Ellipse_4-29" data-name="Ellipse 4" cx="3" cy="3" r="3" transform="translate(1014 1075)" fill="#00ff84"/>
    <circle id="Ellipse_4-30" data-name="Ellipse 4" cx="3" cy="3" r="3" transform="translate(1028 1075)" fill="#00ff84"/>
    <circle id="Ellipse_4-31" data-name="Ellipse 4" cx="3" cy="3" r="3" transform="translate(1042 1075)" fill="#00ff84"/>
    <circle id="Ellipse_4-32" data-name="Ellipse 4" cx="3" cy="3" r="3" transform="translate(1056 1075)" fill="#00ff84"/>
    <circle id="Ellipse_4-33" data-name="Ellipse 4" cx="3" cy="3" r="3" transform="translate(1070 1075)" fill="#00ff84"/>
    <circle id="Ellipse_4-34" data-name="Ellipse 4" cx="3" cy="3" r="3" transform="translate(1084 1075)" fill="#00ff84"/>
    <circle id="Ellipse_4-35" data-name="Ellipse 4" cx="3" cy="3" r="3" transform="translate(1098 1075)" fill="#00ff84"/>
    <circle id="Ellipse_4-36" data-name="Ellipse 4" cx="3" cy="3" r="3" transform="translate(1126 1075)" fill="#00ff84"/>
    <circle id="Ellipse_4-37" data-name="Ellipse 4" cx="3" cy="3" r="3" transform="translate(1140 1075)" fill="#00ff84"/>
    <circle id="Ellipse_4-38" data-name="Ellipse 4" cx="3" cy="3" r="3" transform="translate(1154 1075)" fill="#00ff84"/>
    <circle id="Ellipse_4-39" data-name="Ellipse 4" cx="3" cy="3" r="3" transform="translate(1168 1075)" fill="#00ff84"/>
    <circle id="Ellipse_4-40" data-name="Ellipse 4" cx="3" cy="3" r="3" transform="translate(916 1089)" fill="#00ff84"/>
    <circle id="Ellipse_4-41" data-name="Ellipse 4" cx="3" cy="3" r="3" transform="translate(930 1089)" fill="#00ff84"/>
    <circle id="Ellipse_4-42" data-name="Ellipse 4" cx="3" cy="3" r="3" transform="translate(944 1089)" fill="#00ff84"/>
    <circle id="Ellipse_4-43" data-name="Ellipse 4" cx="3" cy="3" r="3" transform="translate(958 1089)" fill="#00ff84"/>
    <circle id="Ellipse_4-44" data-name="Ellipse 4" cx="3" cy="3" r="3" transform="translate(972 1089)" fill="#00ff84"/>
    <circle id="Ellipse_4-45" data-name="Ellipse 4" cx="3" cy="3" r="3" transform="translate(986 1089)" fill="#00ff84"/>
    <circle id="Ellipse_4-46" data-name="Ellipse 4" cx="3" cy="3" r="3" transform="translate(1000 1089)" fill="#00ff84"/>
    <circle id="Ellipse_4-47" data-name="Ellipse 4" cx="3" cy="3" r="3" transform="translate(1014 1089)" fill="#00ff84"/>
    <circle id="Ellipse_4-48" data-name="Ellipse 4" cx="3" cy="3" r="3" transform="translate(1028 1089)" fill="#00ff84"/>
    <circle id="Ellipse_4-49" data-name="Ellipse 4" cx="3" cy="3" r="3" transform="translate(1042 1089)" fill="#00ff84"/>
    <circle id="Ellipse_4-50" data-name="Ellipse 4" cx="3" cy="3" r="3" transform="translate(1056 1089)" fill="#00ff84"/>
    <circle id="Ellipse_4-51" data-name="Ellipse 4" cx="3" cy="3" r="3" transform="translate(1070 1089)" fill="#00ff84"/>
    <circle id="Ellipse_4-52" data-name="Ellipse 4" cx="3" cy="3" r="3" transform="translate(1084 1089)" fill="#00ff84"/>
    <circle id="Ellipse_4-53" data-name="Ellipse 4" cx="3" cy="3" r="3" transform="translate(1098 1089)" fill="#00ff84"/>
    <circle id="Ellipse_4-54" data-name="Ellipse 4" cx="3" cy="3" r="3" transform="translate(1112 1089)" fill="#00ff84"/>
    <circle id="Ellipse_4-55" data-name="Ellipse 4" cx="3" cy="3" r="3" transform="translate(1126 1089)" fill="#00ff84"/>
    <circle id="Ellipse_4-56" data-name="Ellipse 4" cx="3" cy="3" r="3" transform="translate(1182 1089)" fill="#00ff84"/>
    <circle id="Ellipse_4-57" data-name="Ellipse 4" cx="3" cy="3" r="3" transform="translate(1196 1089)" fill="#00ff84"/>
    <circle id="Ellipse_4-58" data-name="Ellipse 4" cx="3" cy="3" r="3" transform="translate(916 1103)" fill="#00ff84"/>
    <circle id="Ellipse_4-59" data-name="Ellipse 4" cx="3" cy="3" r="3" transform="translate(930 1103)" fill="#00ff84"/>
    <circle id="Ellipse_4-60" data-name="Ellipse 4" cx="3" cy="3" r="3" transform="translate(944 1103)" fill="#00ff84"/>
    <circle id="Ellipse_4-61" data-name="Ellipse 4" cx="3" cy="3" r="3" transform="translate(958 1103)" fill="#00ff84"/>
    <circle id="Ellipse_4-62" data-name="Ellipse 4" cx="3" cy="3" r="3" transform="translate(972 1103)" fill="#00ff84"/>
    <circle id="Ellipse_4-63" data-name="Ellipse 4" cx="3" cy="3" r="3" transform="translate(986 1103)" fill="#00ff84"/>
    <circle id="Ellipse_4-64" data-name="Ellipse 4" cx="3" cy="3" r="3" transform="translate(1000 1103)" fill="#00ff84"/>
    <circle id="Ellipse_4-65" data-name="Ellipse 4" cx="3" cy="3" r="3" transform="translate(1014 1103)" fill="#00ff84"/>
    <circle id="Ellipse_4-66" data-name="Ellipse 4" cx="3" cy="3" r="3" transform="translate(1028 1103)" fill="#00ff84"/>
    <circle id="Ellipse_4-67" data-name="Ellipse 4" cx="3" cy="3" r="3" transform="translate(1042 1103)" fill="#00ff84"/>
    <circle id="Ellipse_4-68" data-name="Ellipse 4" cx="3" cy="3" r="3" transform="translate(1056 1103)" fill="#00ff84"/>
    <circle id="Ellipse_4-69" data-name="Ellipse 4" cx="3" cy="3" r="3" transform="translate(1070 1103)" fill="#00ff84"/>
    <circle id="Ellipse_4-70" data-name="Ellipse 4" cx="3" cy="3" r="3" transform="translate(1084 1103)" fill="#00ff84"/>
    <circle id="Ellipse_4-71" data-name="Ellipse 4" cx="3" cy="3" r="3" transform="translate(1098 1103)" fill="#00ff84"/>
    <circle id="Ellipse_4-72" data-name="Ellipse 4" cx="3" cy="3" r="3" transform="translate(1112 1103)" fill="#00ff84"/>
    <circle id="Ellipse_4-73" data-name="Ellipse 4" cx="3" cy="3" r="3" transform="translate(1126 1103)" fill="#00ff84"/>
    <circle id="Ellipse_4-74" data-name="Ellipse 4" cx="3" cy="3" r="3" transform="translate(1140 1103)" fill="#00ff84"/>
    <circle id="Ellipse_4-75" data-name="Ellipse 4" cx="3" cy="3" r="3" transform="translate(1154 1103)" fill="#00ff84"/>
    <circle id="Ellipse_4-76" data-name="Ellipse 4" cx="3" cy="3" r="3" transform="translate(1168 1103)" fill="#00ff84"/>
    <circle id="Ellipse_4-77" data-name="Ellipse 4" cx="3" cy="3" r="3" transform="translate(916 1117)" fill="#00ff84"/>
    <circle id="Ellipse_4-78" data-name="Ellipse 4" cx="3" cy="3" r="3" transform="translate(930 1117)" fill="#00ff84"/>
    <circle id="Ellipse_4-79" data-name="Ellipse 4" cx="3" cy="3" r="3" transform="translate(944 1117)" fill="#00ff84"/>
    <circle id="Ellipse_4-80" data-name="Ellipse 4" cx="3" cy="3" r="3" transform="translate(958 1117)" fill="#00ff84"/>
    <circle id="Ellipse_4-81" data-name="Ellipse 4" cx="3" cy="3" r="3" transform="translate(972 1117)" fill="#00ff84"/>
    <circle id="Ellipse_4-82" data-name="Ellipse 4" cx="3" cy="3" r="3" transform="translate(986 1117)" fill="#00ff84"/>
    <circle id="Ellipse_4-83" data-name="Ellipse 4" cx="3" cy="3" r="3" transform="translate(1000 1117)" fill="#00ff84"/>
    <circle id="Ellipse_4-84" data-name="Ellipse 4" cx="3" cy="3" r="3" transform="translate(1014 1117)" fill="#00ff84"/>
    <circle id="Ellipse_4-85" data-name="Ellipse 4" cx="3" cy="3" r="3" transform="translate(1028 1117)" fill="#00ff84"/>
    <circle id="Ellipse_4-86" data-name="Ellipse 4" cx="3" cy="3" r="3" transform="translate(1042 1117)" fill="#00ff84"/>
    <circle id="Ellipse_4-87" data-name="Ellipse 4" cx="3" cy="3" r="3" transform="translate(1056 1117)" fill="#00ff84"/>
    <circle id="Ellipse_4-88" data-name="Ellipse 4" cx="3" cy="3" r="3" transform="translate(1070 1117)" fill="#00ff84"/>
    <circle id="Ellipse_4-89" data-name="Ellipse 4" cx="3" cy="3" r="3" transform="translate(1084 1117)" fill="#00ff84"/>
    <circle id="Ellipse_4-90" data-name="Ellipse 4" cx="3" cy="3" r="3" transform="translate(1098 1117)" fill="#00ff84"/>
    <circle id="Ellipse_4-91" data-name="Ellipse 4" cx="3" cy="3" r="3" transform="translate(1112 1117)" fill="#00ff84"/>
    <circle id="Ellipse_4-92" data-name="Ellipse 4" cx="3" cy="3" r="3" transform="translate(1140 1117)" fill="#00ff84"/>
    <circle id="Ellipse_4-93" data-name="Ellipse 4" cx="3" cy="3" r="3" transform="translate(1154 1117)" fill="#00ff84"/>
    <circle id="Ellipse_4-94" data-name="Ellipse 4" cx="3" cy="3" r="3" transform="translate(1168 1117)" fill="#00ff84"/>
    <circle id="Ellipse_4-95" data-name="Ellipse 4" cx="3" cy="3" r="3" transform="translate(1210 1117)" fill="#00ff84"/>
    <circle id="Ellipse_4-96" data-name="Ellipse 4" cx="3" cy="3" r="3" transform="translate(916 1131)" fill="#00ff84"/>
    <circle id="Ellipse_4-97" data-name="Ellipse 4" cx="3" cy="3" r="3" transform="translate(930 1131)" fill="#00ff84"/>
    <circle id="Ellipse_4-98" data-name="Ellipse 4" cx="3" cy="3" r="3" transform="translate(944 1131)" fill="#00ff84"/>
    <circle id="Ellipse_4-99" data-name="Ellipse 4" cx="3" cy="3" r="3" transform="translate(958 1131)" fill="#00ff84"/>
    <circle id="Ellipse_4-100" data-name="Ellipse 4" cx="3" cy="3" r="3" transform="translate(972 1131)" fill="#00ff84"/>
    <circle id="Ellipse_4-101" data-name="Ellipse 4" cx="3" cy="3" r="3" transform="translate(986 1131)" fill="#00ff84"/>
    <circle id="Ellipse_4-102" data-name="Ellipse 4" cx="3" cy="3" r="3" transform="translate(1000 1131)" fill="#00ff84"/>
    <circle id="Ellipse_4-103" data-name="Ellipse 4" cx="3" cy="3" r="3" transform="translate(1014 1131)" fill="#00ff84"/>
    <circle id="Ellipse_4-104" data-name="Ellipse 4" cx="3" cy="3" r="3" transform="translate(1028 1131)" fill="#00ff84"/>
    <circle id="Ellipse_4-105" data-name="Ellipse 4" cx="3" cy="3" r="3" transform="translate(1042 1131)" fill="#00ff84"/>
    <circle id="Ellipse_4-106" data-name="Ellipse 4" cx="3" cy="3" r="3" transform="translate(1056 1131)" fill="#00ff84"/>
    <circle id="Ellipse_4-107" data-name="Ellipse 4" cx="3" cy="3" r="3" transform="translate(1070 1131)" fill="#00ff84"/>
    <circle id="Ellipse_4-108" data-name="Ellipse 4" cx="3" cy="3" r="3" transform="translate(1084 1131)" fill="#00ff84"/>
    <circle id="Ellipse_4-109" data-name="Ellipse 4" cx="3" cy="3" r="3" transform="translate(1098 1131)" fill="#00ff84"/>
    <circle id="Ellipse_4-110" data-name="Ellipse 4" cx="3" cy="3" r="3" transform="translate(1112 1131)" fill="#00ff84"/>
    <circle id="Ellipse_4-111" data-name="Ellipse 4" cx="3" cy="3" r="3" transform="translate(1126 1131)" fill="#00ff84"/>
    <circle id="Ellipse_4-112" data-name="Ellipse 4" cx="3" cy="3" r="3" transform="translate(1140 1131)" fill="#00ff84"/>
    <circle id="Ellipse_4-113" data-name="Ellipse 4" cx="3" cy="3" r="3" transform="translate(1154 1131)" fill="#00ff84"/>
    <circle id="Ellipse_4-114" data-name="Ellipse 4" cx="3" cy="3" r="3" transform="translate(1182 1131)" fill="#00ff84"/>
    <circle id="Ellipse_4-115" data-name="Ellipse 4" cx="3" cy="3" r="3" transform="translate(1224 1131)" fill="#00ff84"/>
    <circle id="Ellipse_4-116" data-name="Ellipse 4" cx="3" cy="3" r="3" transform="translate(916 1145)" fill="#00ff84"/>
    <circle id="Ellipse_4-117" data-name="Ellipse 4" cx="3" cy="3" r="3" transform="translate(930 1145)" fill="#00ff84"/>
    <circle id="Ellipse_4-118" data-name="Ellipse 4" cx="3" cy="3" r="3" transform="translate(944 1145)" fill="#00ff84"/>
    <circle id="Ellipse_4-119" data-name="Ellipse 4" cx="3" cy="3" r="3" transform="translate(958 1145)" fill="#00ff84"/>
    <circle id="Ellipse_4-120" data-name="Ellipse 4" cx="3" cy="3" r="3" transform="translate(972 1145)" fill="#00ff84"/>
    <circle id="Ellipse_4-121" data-name="Ellipse 4" cx="3" cy="3" r="3" transform="translate(986 1145)" fill="#00ff84"/>
    <circle id="Ellipse_4-122" data-name="Ellipse 4" cx="3" cy="3" r="3" transform="translate(1000 1145)" fill="#00ff84"/>
    <circle id="Ellipse_4-123" data-name="Ellipse 4" cx="3" cy="3" r="3" transform="translate(1014 1145)" fill="#00ff84"/>
    <circle id="Ellipse_4-124" data-name="Ellipse 4" cx="3" cy="3" r="3" transform="translate(1028 1145)" fill="#00ff84"/>
    <circle id="Ellipse_4-125" data-name="Ellipse 4" cx="3" cy="3" r="3" transform="translate(1042 1145)" fill="#00ff84"/>
    <circle id="Ellipse_4-126" data-name="Ellipse 4" cx="3" cy="3" r="3" transform="translate(1056 1145)" fill="#00ff84"/>
    <circle id="Ellipse_4-127" data-name="Ellipse 4" cx="3" cy="3" r="3" transform="translate(1070 1145)" fill="#00ff84"/>
    <circle id="Ellipse_4-128" data-name="Ellipse 4" cx="3" cy="3" r="3" transform="translate(1084 1145)" fill="#00ff84"/>
    <circle id="Ellipse_4-129" data-name="Ellipse 4" cx="3" cy="3" r="3" transform="translate(1112 1145)" fill="#00ff84"/>
    <circle id="Ellipse_4-130" data-name="Ellipse 4" cx="3" cy="3" r="3" transform="translate(1140 1145)" fill="#00ff84"/>
    <circle id="Ellipse_4-131" data-name="Ellipse 4" cx="3" cy="3" r="3" transform="translate(1154 1145)" fill="#00ff84"/>
    <circle id="Ellipse_4-132" data-name="Ellipse 4" cx="3" cy="3" r="3" transform="translate(1168 1145)" fill="#00ff84"/>
    <circle id="Ellipse_4-133" data-name="Ellipse 4" cx="3" cy="3" r="3" transform="translate(916 1159)" fill="#00ff84"/>
    <circle id="Ellipse_4-134" data-name="Ellipse 4" cx="3" cy="3" r="3" transform="translate(930 1159)" fill="#00ff84"/>
    <circle id="Ellipse_4-135" data-name="Ellipse 4" cx="3" cy="3" r="3" transform="translate(944 1159)" fill="#00ff84"/>
    <circle id="Ellipse_4-136" data-name="Ellipse 4" cx="3" cy="3" r="3" transform="translate(958 1159)" fill="#00ff84"/>
    <circle id="Ellipse_4-137" data-name="Ellipse 4" cx="3" cy="3" r="3" transform="translate(972 1159)" fill="#00ff84"/>
    <circle id="Ellipse_4-138" data-name="Ellipse 4" cx="3" cy="3" r="3" transform="translate(986 1159)" fill="#00ff84"/>
    <circle id="Ellipse_4-139" data-name="Ellipse 4" cx="3" cy="3" r="3" transform="translate(1000 1159)" fill="#00ff84"/>
    <circle id="Ellipse_4-140" data-name="Ellipse 4" cx="3" cy="3" r="3" transform="translate(1014 1159)" fill="#00ff84"/>
    <circle id="Ellipse_4-141" data-name="Ellipse 4" cx="3" cy="3" r="3" transform="translate(1028 1159)" fill="#00ff84"/>
    <circle id="Ellipse_4-142" data-name="Ellipse 4" cx="3" cy="3" r="3" transform="translate(1042 1159)" fill="#00ff84"/>
    <circle id="Ellipse_4-143" data-name="Ellipse 4" cx="3" cy="3" r="3" transform="translate(1056 1159)" fill="#00ff84"/>
    <circle id="Ellipse_4-144" data-name="Ellipse 4" cx="3" cy="3" r="3" transform="translate(1070 1159)" fill="#00ff84"/>
    <circle id="Ellipse_4-145" data-name="Ellipse 4" cx="3" cy="3" r="3" transform="translate(1084 1159)" fill="#00ff84"/>
    <circle id="Ellipse_4-146" data-name="Ellipse 4" cx="3" cy="3" r="3" transform="translate(1098 1159)" fill="#00ff84"/>
    <circle id="Ellipse_4-147" data-name="Ellipse 4" cx="3" cy="3" r="3" transform="translate(1112 1159)" fill="#00ff84"/>
    <circle id="Ellipse_4-148" data-name="Ellipse 4" cx="3" cy="3" r="3" transform="translate(1140 1159)" fill="#00ff84"/>
    <circle id="Ellipse_4-149" data-name="Ellipse 4" cx="3" cy="3" r="3" transform="translate(1168 1159)" fill="#00ff84"/>
    <circle id="Ellipse_4-150" data-name="Ellipse 4" cx="3" cy="3" r="3" transform="translate(916 1173)" fill="#00ff84"/>
    <circle id="Ellipse_4-151" data-name="Ellipse 4" cx="3" cy="3" r="3" transform="translate(930 1173)" fill="#00ff84"/>
    <circle id="Ellipse_4-152" data-name="Ellipse 4" cx="3" cy="3" r="3" transform="translate(944 1173)" fill="#00ff84"/>
    <circle id="Ellipse_4-153" data-name="Ellipse 4" cx="3" cy="3" r="3" transform="translate(958 1173)" fill="#00ff84"/>
    <circle id="Ellipse_4-154" data-name="Ellipse 4" cx="3" cy="3" r="3" transform="translate(972 1173)" fill="#00ff84"/>
    <circle id="Ellipse_4-155" data-name="Ellipse 4" cx="3" cy="3" r="3" transform="translate(986 1173)" fill="#00ff84"/>
    <circle id="Ellipse_4-156" data-name="Ellipse 4" cx="3" cy="3" r="3" transform="translate(1000 1173)" fill="#00ff84"/>
    <circle id="Ellipse_4-157" data-name="Ellipse 4" cx="3" cy="3" r="3" transform="translate(1014 1173)" fill="#00ff84"/>
    <circle id="Ellipse_4-158" data-name="Ellipse 4" cx="3" cy="3" r="3" transform="translate(1028 1173)" fill="#00ff84"/>
    <circle id="Ellipse_4-159" data-name="Ellipse 4" cx="3" cy="3" r="3" transform="translate(1042 1173)" fill="#00ff84"/>
    <circle id="Ellipse_4-160" data-name="Ellipse 4" cx="3" cy="3" r="3" transform="translate(1056 1173)" fill="#00ff84"/>
    <circle id="Ellipse_4-161" data-name="Ellipse 4" cx="3" cy="3" r="3" transform="translate(1070 1173)" fill="#00ff84"/>
    <circle id="Ellipse_4-162" data-name="Ellipse 4" cx="3" cy="3" r="3" transform="translate(1084 1173)" fill="#00ff84"/>
    <circle id="Ellipse_4-163" data-name="Ellipse 4" cx="3" cy="3" r="3" transform="translate(1098 1173)" fill="#00ff84"/>
    <circle id="Ellipse_4-164" data-name="Ellipse 4" cx="3" cy="3" r="3" transform="translate(1112 1173)" fill="#00ff84"/>
    <circle id="Ellipse_4-165" data-name="Ellipse 4" cx="3" cy="3" r="3" transform="translate(1126 1173)" fill="#00ff84"/>
    <circle id="Ellipse_4-166" data-name="Ellipse 4" cx="3" cy="3" r="3" transform="translate(1140 1173)" fill="#00ff84"/>
  </g>
</svg>
