<svg xmlns="http://www.w3.org/2000/svg" xmlns:xlink="http://www.w3.org/1999/xlink" width="936" height="232" viewBox="0 0 936 232">
  <defs>
    <clipPath id="clip-path">
      <ellipse id="Ellipse_8" data-name="Ellipse 8" cx="468" cy="116" rx="468" ry="116" transform="translate(-230 3815)" fill="#fff" stroke="#707070" stroke-width="1"/>
    </clipPath>
  </defs>
  <g id="Mask_Group_16" data-name="Mask Group 16" transform="translate(230 -3815)" clip-path="url(#clip-path)">
    <g id="Group_92" data-name="Group 92" transform="translate(0 61)">
      <rect id="Rectangle_83" data-name="Rectangle 83" width="140" height="4" rx="2" transform="translate(114 3810)" fill="#00ff84"/>
      <rect id="Rectangle_93" data-name="Rectangle 93" width="47" height="4" rx="2" transform="translate(50 3810)" fill="#00ff84"/>
      <rect id="Rectangle_88" data-name="Rectangle 88" width="90" height="4" rx="2" transform="translate(473 3925)" fill="#141570"/>
      <rect id="Rectangle_89" data-name="Rectangle 89" width="160" height="4" rx="2" transform="translate(0 3925)" fill="#141570"/>
      <rect id="Rectangle_90" data-name="Rectangle 90" width="28" height="4" rx="2" transform="translate(240 3925)" fill="#141570"/>
      <rect id="Rectangle_91" data-name="Rectangle 91" width="13" height="4" rx="2" transform="translate(278 3925)" fill="#141570"/>
      <rect id="Rectangle_86" data-name="Rectangle 86" width="224" height="4" rx="2" transform="translate(188 3864)" fill="#0000e8"/>
      <rect id="Rectangle_94" data-name="Rectangle 94" width="78" height="4" rx="2" transform="translate(536 3864)" fill="#0000e8"/>
      <rect id="Rectangle_92" data-name="Rectangle 92" width="12" height="4" rx="2" transform="translate(425 3864)" fill="#0000e8"/>
      <rect id="Rectangle_87" data-name="Rectangle 87" width="224" height="4" rx="2" transform="translate(-161 3864)" fill="#0000e8"/>
      <rect id="Rectangle_84" data-name="Rectangle 84" width="61" height="4" rx="2" transform="translate(351 3810)" fill="#00ff84"/>
      <rect id="Rectangle_85" data-name="Rectangle 85" width="96" height="4" rx="2" transform="translate(479 3810)" fill="#00ff84"/>
    </g>
  </g>
</svg>
